<?xml version="1.0" encoding="UTF-8"?>
<svg version="1.1" xmlns="http://www.w3.org/2000/svg" width="474" height="474">
<path d="M0 0 C156.42 0 312.84 0 474 0 C474 156.42 474 312.84 474 474 C317.58 474 161.16 474 0 474 C0 317.58 0 161.16 0 0 Z " fill="#F06323" transform="translate(0,0)"/>
<path d="M0 0 C0.37298008 5.67350523 0.64381662 11.33980154 0.82397461 17.02270508 C0.89907986 18.95105246 1.00122015 20.87855443 1.1315918 22.80395508 C2.15807273 38.36218562 2.15807273 38.36218562 -1.42098999 42.73687744 C-4.95102379 45.6627536 -8.8725939 47.52220837 -13.10820007 49.21231079 C-15.94411742 50.39310241 -18.54342425 51.94494988 -21.1875 53.5 C-24.12204537 55.12279006 -26.70710944 56.33385202 -30 57 C-30 57.66 -30 58.32 -30 59 C-31.07701172 59.56654297 -31.07701172 59.56654297 -32.17578125 60.14453125 C-39.17174814 63.86467803 -46.07645469 67.72370966 -52.9375 71.6875 C-53.7416333 72.15067627 -54.5457666 72.61385254 -55.37426758 73.09106445 C-58.80207594 75.08010147 -62.17675264 77.08344301 -65.44140625 79.33203125 C-68 81 -68 81 -70 81 C-70 81.66 -70 82.32 -70 83 C-68.73929688 83.36351562 -68.73929688 83.36351562 -67.453125 83.734375 C-63.5420266 85.16785451 -60.2735159 87.05970633 -56.75 89.25 C-55.51569421 90.00532145 -54.28131777 90.76052744 -53.046875 91.515625 C-52.40105469 91.91265625 -51.75523437 92.3096875 -51.08984375 92.71875 C-43.31926868 97.48276612 -35.45040025 102.04311784 -27.5 106.5 C-21.059869 110.11024654 -14.66144157 113.75954186 -8.36914062 117.62304688 C-5.64727597 119.20500448 -2.81583196 120.59208402 0 122 C0 135.86 0 149.72 0 164 C-4.47159681 163.10568064 -6.4258617 162.37184342 -10.1328125 160.05078125 C-11.10476563 159.44943359 -12.07671875 158.84808594 -13.078125 158.22851562 C-14.08359375 157.59623047 -15.0890625 156.96394531 -16.125 156.3125 C-22.74849639 152.17933395 -29.3845228 148.17474249 -36.26367188 144.48022461 C-40.95164326 141.94425294 -45.56531757 139.27841444 -50.1875 136.625 C-51.13947266 136.07972656 -52.09144531 135.53445313 -53.07226562 134.97265625 C-55.38208832 133.64944124 -57.6913239 132.32521416 -60 131 C-60 130.34 -60 129.68 -60 129 C-60.804375 128.773125 -61.60875 128.54625 -62.4375 128.3125 C-66.92405714 126.6595579 -70.86480202 124.37841453 -75 122 C-76.68605198 121.05989829 -78.37349896 120.12229303 -80.0625 119.1875 C-81.375 118.45833333 -82.6875 117.72916667 -84 117 C-84 116.34 -84 115.68 -84 115 C-84.8669751 114.73517822 -85.7339502 114.47035645 -86.62719727 114.19750977 C-89.97665108 113.00829001 -92.86443929 111.57074745 -95.96484375 109.83984375 C-97.64912476 108.90289673 -97.64912476 108.90289673 -99.36743164 107.94702148 C-100.55762651 107.27748681 -101.74764619 106.6076406 -102.9375 105.9375 C-104.15933805 105.25383431 -105.38126229 104.57032263 -106.60327148 103.88696289 C-115.16884152 99.0848281 -123.63079173 94.13710993 -132 89 C-133.9778533 87.8103138 -135.95688251 86.62257861 -137.9375 85.4375 C-139.29166667 84.625 -140.64583333 83.8125 -142 83 C-140.8067814 79.4203442 -140.06188573 79.15633537 -136.88671875 77.3359375 C-136.05076172 76.85382813 -135.21480469 76.37171875 -134.35351562 75.875 C-133.47373047 75.38 -132.59394531 74.885 -131.6875 74.375 C-130.81931641 73.87226563 -129.95113281 73.36953125 -129.05664062 72.8515625 C-121.98047159 68.81114058 -121.98047159 68.81114058 -118 68 C-118 67.34 -118 66.68 -118 66 C-117.03320312 65.49210937 -116.06640625 64.98421875 -115.0703125 64.4609375 C-113.7548518 63.76629976 -112.43977385 63.07093691 -111.125 62.375 C-110.44260254 62.01398193 -109.76020508 61.65296387 -109.05712891 61.28100586 C-104.29935699 58.7440879 -99.68382602 56.04905991 -95.1484375 53.12890625 C-92.77123465 51.87979421 -90.64350897 51.40348295 -88 51 C-88 50.34 -88 49.68 -88 49 C-87.17435547 48.55914062 -87.17435547 48.55914062 -86.33203125 48.109375 C-66.34595608 37.32619026 -46.63430365 25.8889136 -27.21875 14.11328125 C-26.51669434 13.68748779 -25.81463867 13.26169434 -25.09130859 12.82299805 C-23.82073281 12.04888389 -22.55263762 11.27067681 -21.28759766 10.48754883 C-17.21597101 8 -17.21597101 8 -15 8 C-15 7.34 -15 6.68 -15 6 C-13.06629769 4.99267601 -11.12789694 3.99436712 -9.1875 3 C-7.56908203 2.1646875 -7.56908203 2.1646875 -5.91796875 1.3125 C-3 0 -3 0 0 0 Z " fill="#FCFCFA" transform="translate(310,216)"/>
<path d="M0 0 C3.34634712 1.26849218 6.39198229 2.70668644 9.46875 4.53125 C10.28730469 5.01207031 11.10585937 5.49289063 11.94921875 5.98828125 C13.64973958 6.99609375 15.35026042 8.00390625 17.05078125 9.01171875 C17.86933594 9.49253906 18.68789062 9.97335938 19.53125 10.46875 C20.26923828 10.90638672 21.00722656 11.34402344 21.76757812 11.79492188 C24.12050569 13.06504988 26.50154706 14.05291714 29 15 C29 15.66 29 16.32 29 17 C29.72703125 17.2784375 30.4540625 17.556875 31.203125 17.84375 C39.72025695 21.36479896 47.59409188 26.49204736 55.51293945 31.17675781 C61.16139494 34.51701962 66.84707004 37.78457529 72.55859375 41.015625 C75.30578887 42.59970573 78.02444247 44.21569104 80.73828125 45.85546875 C86.01645975 49.03258624 91.37465419 52.05367039 96.75 55.0625 C107.41632981 61.06127527 117.99289274 67.20499661 128.48291016 73.50732422 C130.26147826 74.56204443 132.05441395 75.59271364 133.85693359 76.60595703 C134.7742627 77.12915527 135.6915918 77.65235352 136.63671875 78.19140625 C137.47291748 78.65877197 138.30911621 79.1261377 139.1706543 79.60766602 C139.77433838 80.06713623 140.37802246 80.52660645 141 81 C141 81.99 141 82.98 141 84 C139.09838867 85.45117188 139.09838867 85.45117188 136.41796875 86.96875 C135.43248047 87.53440674 134.44699219 88.10006348 133.43164062 88.68286133 C132.36107422 89.28251709 131.29050781 89.88217285 130.1875 90.5 C129.09759766 91.12221436 128.00769531 91.74442871 126.88476562 92.38549805 C124.65393198 93.6588399 122.42068197 94.92795753 120.18505859 96.19287109 C116.55066915 98.25493998 112.93760603 100.35164074 109.32763672 102.45605469 C102.11017444 106.66207739 94.84996354 110.78778132 87.56225586 114.87060547 C80.36672838 118.90590443 73.25583174 123.08143209 66.1484375 127.26953125 C53.65081237 134.63259878 41.13101234 141.95722276 28.515625 149.1171875 C26.67699713 150.16130654 24.83845461 151.20557591 23 152.25 C21.67150024 153.00434326 21.67150024 153.00434326 20.31616211 153.77392578 C14.70753383 156.97567883 9.23031848 160.29548044 3.86328125 163.890625 C2 165 2 165 0 165 C-2.99964372 128.38005803 -2.99964372 128.38005803 1.63916016 120.06005859 C5.87381068 115.99089337 10.96938868 114.27102137 16.55126953 112.73339844 C20.12578792 111.66282483 22.88315033 109.9547945 26.0625 108 C27.17238281 107.36835938 28.28226563 106.73671875 29.42578125 106.0859375 C33.58547579 103.68318354 37.66314012 101.14891507 41.75 98.625 C50.67137016 93.11704042 59.79494381 88.01599398 69 83 C65.36515011 79.93479076 61.6541671 77.5557533 57.5 75.25 C52.69981127 72.56087907 47.98138758 69.78677935 43.3125 66.875 C38.69154656 64.00701329 34.01670991 61.33732656 29.2265625 58.765625 C24.86758261 56.38032365 20.55673844 53.91562615 16.25 51.4375 C15.44546387 50.97819092 14.64092773 50.51888184 13.81201172 50.0456543 C12.64436279 49.37143433 12.64436279 49.37143433 11.453125 48.68359375 C10.76379883 48.28712646 10.07447266 47.89065918 9.36425781 47.48217773 C8.58405273 46.99305908 7.80384766 46.50394043 7 46 C6.10328835 45.53061256 6.10328835 45.53061256 5.1884613 45.05174255 C2.36839191 43.39785499 0.35924837 42.1976778 -0.60830688 38.97200012 C-0.81101309 36.46681761 -0.7877569 34.05419351 -0.68359375 31.54296875 C-0.67368912 30.64000565 -0.66378448 29.73704254 -0.65357971 28.80671692 C-0.61449532 25.93196895 -0.52669106 23.0610868 -0.4375 20.1875 C-0.40237815 18.23508132 -0.37044067 16.28260259 -0.34179688 14.33007812 C-0.26475335 9.55190341 -0.14401669 4.77660627 0 0 Z " fill="#FCFCFB" transform="translate(167,90)"/>
<path d="M0 0 C0.66 0 1.32 0 2 0 C2 0.66 2 1.32 2 2 C3.77153442 2.14272339 3.77153442 2.14272339 5.57885742 2.28833008 C9.85195528 2.82854881 12.97267515 4.24661349 16.73828125 6.38671875 C17.64769722 6.89595634 17.64769722 6.89595634 18.57548523 7.41548157 C20.49505477 8.49390823 22.40376054 9.59004145 24.3125 10.6875 C25.57938202 11.40422662 26.84695646 12.11973076 28.11523438 12.83398438 C30.58087274 14.22404326 33.04287741 15.62022091 35.50244141 17.02099609 C40.29942274 19.74557006 45.14562428 22.379352 50 25 C50 25.66 50 26.32 50 27 C50.78375 27.20625 51.5675 27.4125 52.375 27.625 C56.41459608 29.15726058 59.78934033 31.20386493 63.453125 33.46875 C66.87789872 35.52781641 70.40080922 37.26705629 74 39 C74 39.66 74 40.32 74 41 C74.78632813 41.21140625 75.57265625 41.4228125 76.3828125 41.640625 C81.23869836 43.46551515 85.44795914 46.06753007 89.875 48.75 C91.83294852 49.92121645 93.79129684 51.09176476 95.75 52.26171875 C96.76835937 52.87192871 97.78671875 53.48213867 98.8359375 54.11083984 C104.1642701 57.29221621 109.51791896 60.42984985 114.875 63.5625 C115.86612793 64.14547852 116.85725586 64.72845703 117.87841797 65.32910156 C118.82346191 65.88178711 119.76850586 66.43447266 120.7421875 67.00390625 C121.5657373 67.48674072 122.38928711 67.9695752 123.23779297 68.46704102 C126.76477385 70.42443123 130.392123 72.1960615 134 74 C134 60.47 134 46.94 134 33 C134.33 33 134.66 33 135 33 C135.02469854 38.92651057 135.04285931 44.85299125 135.05493164 50.77954102 C135.05996382 52.79614789 135.06679014 54.8127511 135.07543945 56.8293457 C135.08755373 59.72608339 135.09323943 62.62277288 135.09765625 65.51953125 C135.10281754 66.42274612 135.10797882 67.325961 135.11329651 68.25654602 C135.11337204 69.09719101 135.11344757 69.937836 135.11352539 70.80395508 C135.115746 71.54341873 135.11796661 72.28288239 135.12025452 73.04475403 C135 75 135 75 134 78 C127.375 79.25 127.375 79.25 124 77 C123.01 76.67 122.02 76.34 121 76 C121.66 75.67 122.32 75.34 123 75 C122.67 74.01 122.34 73.02 122 72 C118.73797837 70.69519135 115.42043815 69.78933188 112 69 C111.67 67.35 111.34 65.7 111 64 C109.205625 63.814375 109.205625 63.814375 107.375 63.625 C103.70959917 63.14973488 100.38271735 62.56760072 97 61 C96.125 58.875 96.125 58.875 96 57 C95.01 57 94.02 57 93 57 C93 56.34 93 55.68 93 55 C90.46447088 56.26776456 90.15080425 57.46823065 89 60 C88.505 60.99 88.505 60.99 88 62 C86.68 62 85.36 62 84 62 C83.67 61.34 83.34 60.68 83 60 C80.8439226 58.89475979 78.64975777 57.86299861 76.4375 56.875 C75.23996094 56.33617187 74.04242188 55.79734375 72.80859375 55.2421875 C71.88175781 54.83226562 70.95492187 54.42234375 70 54 C70 53.34 70 52.68 70 52 C69.05125 51.79375 68.1025 51.5875 67.125 51.375 C61.98106632 49.91737608 57.28176833 47.17040391 53 44 C53 43.34 53 42.68 53 42 C51.35 42 49.7 42 48 42 C48 41.01 48 40.02 48 39 C47.31035156 38.92136719 46.62070313 38.84273438 45.91015625 38.76171875 C42.24712821 37.8029396 39.5167295 35.92633554 36.4375 33.8125 C31.01694165 30.19424317 25.55035765 27.12519986 19.62109375 24.38671875 C16.77477803 22.88084382 14.49008707 21.03005404 12 19 C9.81785432 18.22166466 9.81785432 18.22166466 8 18 C8 17.34 8 16.68 8 16 C5.36 15.34 2.72 14.68 0 14 C0 13.34 0 12.68 0 12 C-0.66 12 -1.32 12 -2 12 C-2 11.34 -2 10.68 -2 10 C-3.98 9.34 -5.96 8.68 -8 8 C-7.67 6.68 -7.34 5.36 -7 4 C-4.69 3.34 -2.38 2.68 0 2 C0 1.34 0 0.68 0 0 Z " fill="#D8591F" transform="translate(176,306)"/>
<path d="M0 0 C2.64 0 5.28 0 8 0 C8.82211874 3.56196106 9.10015316 6.78175838 9.02172852 10.43286133 C9.00163223 11.49358353 8.98153595 12.55430573 8.96083069 13.64717102 C8.93379562 14.7806749 8.90676056 15.91417877 8.87890625 17.08203125 C8.84348976 18.83600471 8.84348976 18.83600471 8.80735779 20.62541199 C8.73087814 24.35456965 8.64678585 28.08351141 8.5625 31.8125 C8.50926363 34.34308845 8.45652334 36.87368738 8.40429688 39.40429688 C8.27528418 45.60299772 8.14002339 51.80153863 8 58 C7.34 58 6.68 58 6 58 C6 58.66 6 59.32 6 60 C2.77208445 62.1519437 1.71599191 62.20086443 -2 62 C-2 62.66 -2 63.32 -2 64 C-4.475 64.99 -4.475 64.99 -7 66 C-7 66.66 -7 67.32 -7 68 C-8.134375 68.28875 -9.26875 68.5775 -10.4375 68.875 C-11.613125 69.24625 -12.78875 69.6175 -14 70 C-14.33 70.66 -14.66 71.32 -15 72 C-16.32 72 -17.64 72 -19 72 C-19 72.66 -19 73.32 -19 74 C-20.32 74 -21.64 74 -23 74 C-23 74.66 -23 75.32 -23 76 C-27.25864385 79.27504844 -32.19381855 81.64803887 -37 84 C-39.34742791 85.30961768 -41.67155721 86.65666762 -44 88 C-44.99 88.495 -44.99 88.495 -46 89 C-46 90.32 -46 91.64 -46 93 C-45.38125 93.12375 -44.7625 93.2475 -44.125 93.375 C-42 94 -42 94 -40 96 C-37.42938689 96.64767793 -37.42938689 96.64767793 -35 97 C-36.98 97.99 -36.98 97.99 -39 99 C-39.52207031 98.63648438 -40.04414063 98.27296875 -40.58203125 97.8984375 C-47.74351301 93.00705767 -55.22838387 88.84051893 -63 85 C-63 84.34 -63 83.68 -63 83 C-60.54927546 81.40503535 -58.10429144 79.93751418 -55.5625 78.5 C-54.00496271 77.60459378 -52.44767844 76.70874733 -50.890625 75.8125 C-49.68116211 75.12027344 -49.68116211 75.12027344 -48.44726562 74.4140625 C-46.04914795 73.02839834 -43.67058178 71.61451432 -41.296875 70.1875 C-40.54462646 69.73697266 -39.79237793 69.28644531 -39.01733398 68.82226562 C-37.57970958 67.96010487 -36.14421229 67.09438422 -34.71118164 66.22460938 C-30.89484669 63.95219553 -27.30501436 62.23191702 -23 61 C-23 60.34 -23 59.68 -23 59 C-22.40316406 58.68289063 -21.80632812 58.36578125 -21.19140625 58.0390625 C-14.23269783 54.29604252 -7.42817917 50.33648086 -0.66430664 46.25244141 C0.04089111 45.83140137 0.74608887 45.41036133 1.47265625 44.9765625 C2.10437744 44.59580566 2.73609863 44.21504883 3.38696289 43.82275391 C5 43 5 43 7 43 C7 29.47 7 15.94 7 2 C3.04 3.98 -0.92 5.96 -5 8 C-5.99 8 -6.98 8 -8 8 C-8 8.66 -8 9.32 -8 10 C-10.26645058 11.34130761 -12.53760097 12.67316234 -14.8125 14 C-15.45509766 14.3815625 -16.09769531 14.763125 -16.75976562 15.15625 C-21.66015625 18 -21.66015625 18 -25 18 C-24.67 17.34 -24.34 16.68 -24 16 C-23.01 16 -22.02 16 -21 16 C-21.495 13.03 -21.495 13.03 -22 10 C-21.34 10 -20.68 10 -20 10 C-20 10.66 -20 11.32 -20 12 C-18.02 12 -16.04 12 -14 12 C-14 11.01 -14 10.02 -14 9 C-12.68 9 -11.36 9 -10 9 C-9.67 8.01 -9.34 7.02 -9 6 C-5.78715662 4.11420063 -3.75366417 3 0 3 C0 2.01 0 1.02 0 0 Z " fill="#D8591F" transform="translate(303,214)"/>
<path d="M0 0 C0 0.99 0 1.98 0 3 C-2.31 3.33 -4.62 3.66 -7 4 C-7.12375 4.598125 -7.2475 5.19625 -7.375 5.8125 C-8 8 -8 8 -10 11 C-10 11.66 -10 12.32 -10 13 C-12.35438733 14.42944945 -13.48032433 15.08661261 -16.25 14.625 C-16.8275 14.41875 -17.405 14.2125 -18 14 C-18.33 15.32 -18.66 16.64 -19 18 C-18.34 18.33 -17.68 18.66 -17 19 C-17.350625 19.78375 -17.70125 20.5675 -18.0625 21.375 C-18.5265625 22.674375 -18.5265625 22.674375 -19 24 C-18.505 24.99 -18.505 24.99 -18 26 C-18.80824219 26.37511719 -19.61648437 26.75023437 -20.44921875 27.13671875 C-27.01334049 30.17914406 -27.01334049 30.17914406 -32.625 34.625 C-35.64083834 37.64083834 -38.66548524 38.63647227 -42.625 40.0859375 C-45.28560633 41.10992086 -47.58741864 42.49213665 -50 44 C-50.66 44 -51.32 44 -52 44 C-52 44.66 -52 45.32 -52 46 C-52.61746094 46.29132813 -53.23492187 46.58265625 -53.87109375 46.8828125 C-58.40112898 49.07543229 -62.63285498 51.34625547 -66.75 54.25 C-70.14810057 56.60392402 -72.77846939 57.78351125 -77 58 C-77 56.68 -77 55.36 -77 54 C-78.134375 54.185625 -79.26875 54.37125 -80.4375 54.5625 C-81.613125 54.706875 -82.78875 54.85125 -84 55 C-84.33 54.67 -84.66 54.34 -85 54 C-86.99958364 53.95919217 -89.00045254 53.95745644 -91 54 C-89.74161821 50.22485464 -88.61148498 49.90248455 -85.21484375 47.9609375 C-84.21662598 47.38472656 -83.2184082 46.80851562 -82.18994141 46.21484375 C-81.11663574 45.60769531 -80.04333008 45.00054687 -78.9375 44.375 C-77.84872559 43.74980469 -76.75995117 43.12460938 -75.63818359 42.48046875 C-72.43142824 40.64289516 -69.21760826 38.81849154 -66 37 C-65.16130371 36.52594727 -64.32260742 36.05189453 -63.45849609 35.56347656 C-60.699521 34.0071928 -57.93854857 32.45460614 -55.17333984 30.90942383 C-50.9803948 28.56488067 -46.84503744 26.14400591 -42.73828125 23.65234375 C-31.59405513 16.92765381 -20.31597551 10.43016971 -9 4 C-8.06849121 3.44844238 -8.06849121 3.44844238 -7.11816406 2.88574219 C-2.21062884 0 -2.21062884 0 0 0 Z " fill="#D95920" transform="translate(260,202)"/>
<path d="M0 0 C3.70701026 0.58497148 6.48453033 1.60197326 9.75 3.4375 C11.18085938 4.23994141 11.18085938 4.23994141 12.640625 5.05859375 C17.35580089 7.78352679 22.04820955 10.54635234 26.73266602 13.32373047 C30.67622922 15.65659197 34.63853784 17.91541372 38.6875 20.0625 C43.5631552 22.67419391 48.15499495 25.63795689 52.77856445 28.6640625 C58.02778945 32.0766775 63.44570374 35.10949889 69 38 C69 38.99 69 39.98 69 41 C57.47835991 47.33485194 57.47835991 47.33485194 52 50 C52 48.35 52 46.7 52 45 C53.32 45 54.64 45 56 45 C54.25048432 44.04078278 52.50036756 43.08266183 50.75 42.125 C49.77546875 41.59132812 48.8009375 41.05765625 47.796875 40.5078125 C45.54869592 39.29580534 43.2927195 38.12452433 41 37 C41 36.34 41 35.68 41 35 C40.01 35 39.02 35 38 35 C38 34.34 38 33.68 38 33 C37.21625 32.855625 36.4325 32.71125 35.625 32.5625 C33 32 33 32 31 31 C31 30.01 31 29.02 31 28 C29.741875 27.896875 28.48375 27.79375 27.1875 27.6875 C23.56895311 27.3908978 22.49289832 26.54177868 20 24 C18.13490595 23.04181131 16.2350814 22.14938837 14.3125 21.3125 C13.31863281 20.87550781 12.32476562 20.43851563 11.30078125 19.98828125 C10.54152344 19.66214844 9.78226563 19.33601563 9 19 C9 18.34 9 17.68 9 17 C8.071875 16.7525 7.14375 16.505 6.1875 16.25 C2.81004243 14.92550684 1.7093634 14.1338329 0 11 C0 10.01 0 9.02 0 8 C-0.99 7.67 -1.98 7.34 -3 7 C-3 5.35 -3 3.7 -3 2 C-2.34 2 -1.68 2 -1 2 C-0.67 1.34 -0.34 0.68 0 0 Z " fill="#D95921" transform="translate(167,133)"/>
<path d="M0 0 C0.04125 0.928125 0.0825 1.85625 0.125 2.8125 C0.68859031 6.28947638 0.68859031 6.28947638 4.0625 7.875 C5.031875 8.24625 6.00125 8.6175 7 9 C5.68786941 12.93639176 4.17198478 13.28653597 0.5625 15.1875 C-0.42621094 15.71730469 -1.41492188 16.24710938 -2.43359375 16.79296875 C-5 18 -5 18 -7 18 C-7 18.66 -7 19.32 -7 20 C-9.28929053 21.17154293 -11.58118362 22.33738074 -13.875 23.5 C-14.52597656 23.83386719 -15.17695313 24.16773438 -15.84765625 24.51171875 C-20.7734375 27 -20.7734375 27 -23 27 C-23 27.66 -23 28.32 -23 29 C-24.98 29.66 -26.96 30.32 -29 31 C-29 30.34 -29 29.68 -29 29 C-29.99 29 -30.98 29 -32 29 C-33.6875 27.625 -33.6875 27.625 -35 26 C-35 25.34 -35 24.68 -35 24 C-38.96 24.495 -38.96 24.495 -43 25 C-41.65199023 22.30398045 -40.17426454 21.88546235 -37.5 20.5 C-32.44221619 17.80996934 -27.49187648 14.97828357 -22.5625 12.0625 C-21.83732178 11.63469238 -21.11214355 11.20688477 -20.36499023 10.76611328 C-17.00971136 8.78507297 -13.65876354 6.79700684 -10.3125 4.80078125 C-9.24 4.16527344 -8.1675 3.52976563 -7.0625 2.875 C-6.12535156 2.31554687 -5.18820312 1.75609375 -4.22265625 1.1796875 C-2 0 -2 0 0 0 Z " fill="#D85921" transform="translate(303,177)"/>
<path d="M0 0 C1.32 0 2.64 0 4 0 C4.309375 0.8971875 4.309375 0.8971875 4.625 1.8125 C6.52962354 4.8425829 8.77923144 5.48076955 12 7 C18.65321101 10.7746789 18.65321101 10.7746789 19.9375 15.3125 C19.958125 16.199375 19.97875 17.08625 20 18 C21.98 18 23.96 18 26 18 C26 17.34 26 16.68 26 16 C26.99 16.33 27.98 16.66 29 17 C27.02 17.99 27.02 17.99 25 19 C25.34444881 21.47266765 25.34444881 21.47266765 26 24 C26.66 24.33 27.32 24.66 28 25 C27.67 25.99 27.34 26.98 27 28 C24.69518089 27.6026174 23.34120353 27.36616964 21.71875 25.625 C19.47650558 23.50505983 17.13466223 22.54097062 14.3125 21.3125 C13.31863281 20.87550781 12.32476562 20.43851563 11.30078125 19.98828125 C10.54152344 19.66214844 9.78226563 19.33601563 9 19 C9 18.34 9 17.68 9 17 C8.071875 16.7525 7.14375 16.505 6.1875 16.25 C2.81004243 14.92550684 1.7093634 14.1338329 0 11 C0 10.01 0 9.02 0 8 C-0.99 7.67 -1.98 7.34 -3 7 C-3 5.35 -3 3.7 -3 2 C-2.34 2 -1.68 2 -1 2 C-0.67 1.34 -0.34 0.68 0 0 Z " fill="#DA581F" transform="translate(167,133)"/>
<path d="M0 0 C0.33 0 0.66 0 1 0 C1.02469854 5.92651057 1.04285931 11.85299125 1.05493164 17.77954102 C1.05996382 19.79614789 1.06679014 21.8127511 1.07543945 23.8293457 C1.08755373 26.72608339 1.09323943 29.62277288 1.09765625 32.51953125 C1.10281754 33.42274612 1.10797882 34.325961 1.11329651 35.25654602 C1.11337204 36.09719101 1.11344757 36.937836 1.11352539 37.80395508 C1.115746 38.54341873 1.11796661 39.28288239 1.12025452 40.04475403 C1 42 1 42 0 45 C-6.625 46.25 -6.625 46.25 -10 44 C-10.99 43.67 -11.98 43.34 -13 43 C-12.34 42.67 -11.68 42.34 -11 42 C-11.33 41.01 -11.66 40.02 -12 39 C-15.26202163 37.69519135 -18.57956185 36.78933188 -22 36 C-22.33 34.35 -22.66 32.7 -23 31 C-24.19625 30.87625 -25.3925 30.7525 -26.625 30.625 C-30.29040083 30.14973488 -33.61728265 29.56760072 -37 28 C-37.875 25.875 -37.875 25.875 -38 24 C-38.99 24 -39.98 24 -41 24 C-41 23.34 -41 22.68 -41 22 C-43.64 22 -46.28 22 -49 22 C-49 21.67 -49 21.34 -49 21 C-47.35 21 -45.7 21 -44 21 C-44.33 20.01 -44.66 19.02 -45 18 C-48.00847418 16.77479736 -48.00847418 16.77479736 -51 16 C-51 17.65 -51 19.3 -51 21 C-51.99 20.67 -52.98 20.34 -54 20 C-54.6875 17.9375 -54.6875 17.9375 -55 16 C-53.68 15.67 -52.36 15.34 -51 15 C-51 14.34 -51 13.68 -51 13 C-47.16508666 14.43020534 -43.72848633 16.20112741 -40.1875 18.25 C-39.31907471 18.75031738 -39.31907471 18.75031738 -38.43310547 19.26074219 C-34.28707265 21.65538832 -30.1577468 24.07852767 -26.02734375 26.5 C-24.44626831 27.42570801 -24.44626831 27.42570801 -22.83325195 28.37011719 C-20.72999179 29.60252745 -18.62821029 30.8374655 -16.52807617 32.07519531 C-15.54170166 32.65366211 -14.55532715 33.23212891 -13.5390625 33.828125 C-12.66459473 34.3427832 -11.79012695 34.85744141 -10.88916016 35.38769531 C-7.32336151 37.37760019 -3.6523572 39.1738214 0 41 C0 27.47 0 13.94 0 0 Z " fill="#CC6D3E" transform="translate(310,339)"/>
<path d="M0 0 C4.3785374 1.75141496 7.97072742 3.62983966 12 6 C12 6.33 12 6.66 12 7 C10.35 7 8.7 7 7 7 C7 17.23 7 27.46 7 38 C5.68 38 4.36 38 3 38 C3.33 39.65 3.66 41.3 4 43 C2.68 42.34 1.36 41.68 0 41 C0 27.47 0 13.94 0 0 Z " fill="#FEFBF2" transform="translate(167,90)"/>
<path d="M0 0 C2.64 0 5.28 0 8 0 C9.23471978 4.73399114 9.06905207 9.28582649 8.94921875 14.1328125 C8.9303511 15.00646454 8.91148346 15.88011658 8.89204407 16.78024292 C8.85028535 18.62097881 8.8055611 20.46164952 8.75805664 22.30224609 C8.68757644 25.1219418 8.63337497 27.94165226 8.58007812 30.76171875 C8.53744983 32.55210722 8.49386296 34.34247317 8.44921875 36.1328125 C8.43453049 36.97659454 8.41984222 37.82037659 8.40470886 38.68972778 C8.28957303 42.60012916 8.21508435 44.67737347 6 48 C3.02373379 49.14104667 0.01077552 49.96991505 -3.0546875 50.83984375 C-6.23317289 52.09184662 -7.68240227 53.55589584 -10 56 C-12.75 56.25 -12.75 56.25 -15 56 C-12.12037726 52.86290511 -9.33282095 50.89848524 -5.5625 48.9375 C-2.74505214 47.46020119 0.01615826 45.99000831 2.72265625 44.31640625 C5 43 5 43 7 43 C7 29.47 7 15.94 7 2 C3.04 3.98 -0.92 5.96 -5 8 C-5.99 8 -6.98 8 -8 8 C-8 8.66 -8 9.32 -8 10 C-10.26645058 11.34130761 -12.53760097 12.67316234 -14.8125 14 C-15.45509766 14.3815625 -16.09769531 14.763125 -16.75976562 15.15625 C-21.66015625 18 -21.66015625 18 -25 18 C-24.67 17.34 -24.34 16.68 -24 16 C-23.01 16 -22.02 16 -21 16 C-21.33 14.02 -21.66 12.04 -22 10 C-21.34 10 -20.68 10 -20 10 C-20 10.66 -20 11.32 -20 12 C-18.02 12 -16.04 12 -14 12 C-14 11.01 -14 10.02 -14 9 C-12.68 9 -11.36 9 -10 9 C-9.67 8.01 -9.34 7.02 -9 6 C-5.78715662 4.11420063 -3.75366417 3 0 3 C0 2.01 0 1.02 0 0 Z " fill="#CA7249" transform="translate(303,214)"/>
<path d="M0 0 C2.9657338 0.42367626 4.89147999 0.93043589 7.4375 2.5625 C10.50307723 4.28221405 12.53954332 4.24142721 16 4 C16 3.34 16 2.68 16 2 C17.98 2 19.96 2 22 2 C21.67 2.99 21.34 3.98 21 5 C19.67696283 5.3721042 18.34262065 5.70630173 17 6 C16.67 6.66 16.34 7.32 16 8 C16.886875 8.2475 17.77375 8.495 18.6875 8.75 C22.13966324 10.05270311 24.14382781 11.71506225 27 14 C28.98723268 14.70381157 30.98777953 15.3711811 33 16 C35.875 17.5 35.875 17.5 38 19 C38 19.66 38 20.32 38 21 C38.99 20.67 39.98 20.34 41 20 C41.33 19.34 41.66 18.68 42 18 C43.32 18 44.64 18 46 18 C46 19.32 46 20.64 46 22 C45.01 22 44.02 22 43 22 C43.61875 22.61875 44.2375 23.2375 44.875 23.875 C46.25 25.25 47.625 26.625 49 28 C48 31 48 31 45 33 C42.8125 32.625 42.8125 32.625 41 32 C43.475 30.515 43.475 30.515 46 29 C42.82189848 25.41770103 39.28469811 23.36998619 35.0625 21.25 C28.96420562 18.09675727 23.11669462 14.67949513 17.296875 11.03125 C11.62020699 7.53377682 5.80762523 4.2738637 0 1 C0 0.67 0 0.34 0 0 Z " fill="#DE703B" transform="translate(262,144)"/>
<path d="M0 0 C0 1.32 0 2.64 0 4 C3.27773504 3.24849977 3.27773504 3.24849977 5 0 C8.125 -0.1875 8.125 -0.1875 11 0 C8.0098979 3.33511388 5.10501426 5.21521119 1 7 C0.34 7 -0.32 7 -1 7 C-1 7.66 -1 8.32 -1 9 C-7.435 11.97 -7.435 11.97 -14 15 C-14 13.35 -14 11.7 -14 10 C-14.29749946 8.32656552 -14.62127066 6.65694085 -15 5 C-14.195625 4.71125 -13.39125 4.4225 -12.5625 4.125 C-9.8673532 3.26737432 -9.8673532 3.26737432 -9 1 C-5.93090555 0.33280556 -3.14213983 0 0 0 Z " fill="#EB6628" transform="translate(223,258)"/>
<path d="M0 0 C0 0.99 0 1.98 0 3 C-2.31 3.33 -4.62 3.66 -7 4 C-7.12375 4.598125 -7.2475 5.19625 -7.375 5.8125 C-8 8 -8 8 -10 11 C-10 11.66 -10 12.32 -10 13 C-11.98 13.99 -11.98 13.99 -14 15 C-14.495 13.515 -14.495 13.515 -15 12 C-16.32 12 -17.64 12 -19 12 C-19.33 12.99 -19.66 13.98 -20 15 C-26.05714286 19 -26.05714286 19 -31 19 C-31.33 19.99 -31.66 20.98 -32 22 C-36.60352101 25.25614901 -41.46103154 26.5384193 -47 27 C-44.76231335 24.54973089 -42.53171604 23.04049967 -39.61328125 21.4765625 C-38.75669922 21.0125 -37.90011719 20.5484375 -37.01757812 20.0703125 C-36.12490234 19.59335938 -35.23222656 19.11640625 -34.3125 18.625 C-28.73106753 15.62626728 -23.22932861 12.58955424 -17.88256836 9.1875 C-14.84447565 7.27111005 -11.73977236 5.47561006 -8.625 3.6875 C-8.01011719 3.32849609 -7.39523438 2.96949219 -6.76171875 2.59960938 C-2.23592262 0 -2.23592262 0 0 0 Z " fill="#C96336" transform="translate(260,202)"/>
<path d="M0 0 C7.84926484 3.72046079 15.32366372 7.87850028 22.7800293 12.32128906 C26.72998164 14.67256719 30.69451789 16.95812927 34.75 19.125 C41.00173298 22.47723895 46.99018469 26.23550519 53 30 C49.37673261 31.2077558 48.35853631 30.54311128 45 29 C45 28.34 45 27.68 45 27 C44.38511719 26.79503906 43.77023438 26.59007812 43.13671875 26.37890625 C39.7578125 25.25260417 36.37890625 24.12630208 33 23 C33 22.34 33 21.68 33 21 C32.484375 20.7525 31.96875 20.505 31.4375 20.25 C28.22815849 18.60418384 25.12414336 16.8023904 22 15 C22 15.66 22 16.32 22 17 C20.02 17 18.04 17 16 17 C15.938125 16.05125 15.87625 15.1025 15.8125 14.125 C15.4103125 12.578125 15.4103125 12.578125 15 11 C12.7193293 9.78702351 12.7193293 9.78702351 10 9 C8.31295807 7.69254251 6.64639965 6.35827971 5 5 C4.071875 4.46375 3.14375 3.9275 2.1875 3.375 C1.465625 2.92125 0.74375 2.4675 0 2 C0 1.34 0 0.68 0 0 Z " fill="#C26C3E" transform="translate(171,134)"/>
<path d="M0 0 C0 0.66 0 1.32 0 2 C4.455 1.505 4.455 1.505 9 1 C5.74888883 3.70129895 2.5138032 5.98600567 -1.16796875 8.05859375 C-2.14443359 8.60966797 -3.12089844 9.16074219 -4.12695312 9.72851562 C-5.13693359 10.29248047 -6.14691406 10.85644531 -7.1875 11.4375 C-8.17814453 11.99759766 -9.16878906 12.55769531 -10.18945312 13.13476562 C-16.37283033 16.60962088 -22.62313957 19.89458581 -29 23 C-27.76884358 19.30653074 -26.87119351 19.13909926 -23.5 17.4375 C-20.09741461 15.88380682 -20.09741461 15.88380682 -18 13 C-16.02111039 12.27306096 -14.02045442 11.60183749 -12 11 C-12.33 10.01 -12.66 9.02 -13 8 C-11.40320196 6.6578508 -9.79729803 5.32652885 -8.1875 4 C-7.29417969 3.2575 -6.40085937 2.515 -5.48046875 1.75 C-3 0 -3 0 0 0 Z " fill="#EF6420" transform="translate(269,232)"/>
<path d="M0 0 C2.97 0.33 5.94 0.66 9 1 C8.34 1.66 7.68 2.32 7 3 C6.70879727 4.93868123 6.70879727 4.93868123 6.77294922 7.17431641 C6.77310028 8.03505768 6.77325134 8.89579895 6.77340698 9.78262329 C6.78372955 10.71287323 6.79405212 11.64312317 6.8046875 12.6015625 C6.8075174 13.55316254 6.81034729 14.50476257 6.81326294 15.48519897 C6.82448011 18.53192592 6.84958737 21.57836154 6.875 24.625 C6.88502782 26.68749576 6.89415401 28.74999612 6.90234375 30.8125 C6.92442446 35.87511267 6.9589647 40.9375069 7 46 C6.01 46 5.02 46 4 46 C2.85684253 43.71368506 2.87887268 42.45652594 2.88647461 39.91748047 C2.88658791 38.65639969 2.88658791 38.65639969 2.88670349 37.36984253 C2.89186478 36.46146637 2.89702606 35.55309021 2.90234375 34.6171875 C2.90446617 33.22308151 2.90446617 33.22308151 2.90663147 31.80081177 C2.91223947 28.82550876 2.92479332 25.85028036 2.9375 22.875 C2.94251397 20.86067817 2.94707705 18.84635516 2.95117188 16.83203125 C2.9622115 11.88799198 2.97948151 6.94400865 3 2 C2.01 2 1.02 2 0 2 C0 1.34 0 0.68 0 0 Z " fill="#DD6D3B" transform="translate(161,210)"/>
<path d="M0 0 C0.33 2.31 0.66 4.62 1 7 C-4.55847416 10.78986875 -8.16997533 13.16139829 -14.9375 13.5625 C-18.71830815 13.79670935 -22.30005653 14.17551904 -26 15 C-23.65825879 12.42651653 -21.19697334 10.80587715 -18.18359375 9.08203125 C-17.25482422 8.55029297 -16.32605469 8.01855469 -15.36914062 7.47070312 C-14.40169922 6.92349609 -13.43425781 6.37628906 -12.4375 5.8125 C-10.98053711 4.97428711 -10.98053711 4.97428711 -9.49414062 4.11914062 C-2.25672505 0 -2.25672505 0 0 0 Z " fill="#D95E24" transform="translate(303,177)"/>
<path d="M0 0 C0.66 0.33 1.32 0.66 2 1 C1.01 2.485 1.01 2.485 0 4 C-0.99 4 -1.98 4 -3 4 C-3.12375 4.5775 -3.2475 5.155 -3.375 5.75 C-4.00648824 8.02335767 -4.88858191 9.9253529 -6 12 C-7.32 12 -8.64 12 -10 12 C-10 13.32 -10 14.64 -10 16 C-10.99 16 -11.98 16 -13 16 C-13.33 15.34 -13.66 14.68 -14 14 C-15.98 14 -17.96 14 -20 14 C-20.33 14.99 -20.66 15.98 -21 17 C-22.65 17 -24.3 17 -26 17 C-26 17.66 -26 18.32 -26 19 C-27.32 18.67 -28.64 18.34 -30 18 C-29.37544922 17.63237549 -28.75089844 17.26475098 -28.10742188 16.88598633 C-25.23763274 15.19592268 -22.36881139 13.50422275 -19.5 11.8125 C-18.02660156 10.9452832 -18.02660156 10.9452832 -16.5234375 10.06054688 C-15.55664062 9.49013672 -14.58984375 8.91972656 -13.59375 8.33203125 C-12.64371094 7.77209473 -11.69367188 7.2121582 -10.71484375 6.63525391 C-8.24089793 5.14510201 -5.82351401 3.59135488 -3.40625 2.01171875 C-2.2821875 1.34785156 -1.158125 0.68398437 0 0 Z M-18 16 C-16.35 16 -14.7 16 -13 16 C-14.3125 18 -14.3125 18 -16 20 C-16.99 20 -17.98 20 -19 20 C-18.67 18.68 -18.34 17.36 -18 16 Z " fill="#D25C20" transform="translate(202,234)"/>
<path d="M0 0 C2.475 0.99 2.475 0.99 5 2 C5.33 15.86 5.66 29.72 6 44 C3.525 44.495 3.525 44.495 1 45 C1.00523682 43.81446533 1.01047363 42.62893066 1.01586914 41.4074707 C1.0339988 36.99992633 1.04546114 32.59238524 1.05493164 28.18481445 C1.05995364 26.27888433 1.06677248 24.37295805 1.07543945 22.46704102 C1.08759846 19.72411144 1.09324971 16.9812329 1.09765625 14.23828125 C1.10281754 13.38913651 1.10797882 12.53999176 1.11329651 11.66511536 C1.11367627 7.64056952 1.0089224 3.92746608 0 0 Z " fill="#DB6D3B" transform="translate(162,88)"/>
<path d="M0 0 C3.79049707 1.42749981 7.27122456 3.16236542 10.8125 5.125 C12.27623047 5.93324219 12.27623047 5.93324219 13.76953125 6.7578125 C14.50558594 7.16773438 15.24164063 7.57765625 16 8 C16 8.99 16 9.98 16 11 C16.66 11 17.32 11 18 11 C18 11.66 18 12.32 18 13 C19.32 13.33 20.64 13.66 22 14 C22 14.66 22 15.32 22 16 C20.3125 16.6875 20.3125 16.6875 18 17 C15.25 15.75 15.25 15.75 13 14 C13 13.01 13 12.02 13 11 C12.01 11 11.02 11 10 11 C10 10.34 10 9.68 10 9 C7.36 9 4.72 9 2 9 C2 8.67 2 8.34 2 8 C3.65 8 5.3 8 7 8 C6.67 7.01 6.34 6.02 6 5 C2.99152582 3.77479736 2.99152582 3.77479736 0 3 C0 4.65 0 6.3 0 8 C-0.99 7.67 -1.98 7.34 -3 7 C-3.6875 4.9375 -3.6875 4.9375 -4 3 C-2.68 2.67 -1.36 2.34 0 2 C0 1.34 0 0.68 0 0 Z " fill="#C86231" transform="translate(259,352)"/>
<path d="M0 0 C3.48874789 -0.09763287 5.56656576 0.1875957 8.59375 2.00390625 C9.08875 2.49890625 9.58375 2.99390625 10.09375 3.50390625 C7.78375 4.82390625 5.47375 6.14390625 3.09375 7.50390625 C3.09375 8.16390625 3.09375 8.82390625 3.09375 9.50390625 C8.37375 12.47390625 13.65375 15.44390625 19.09375 18.50390625 C15.96025268 19.54840536 15.10406744 19.4381427 12.09375 18.50390625 C12.09375 17.84390625 12.09375 17.18390625 12.09375 16.50390625 C11.3925 16.23578125 10.69125 15.96765625 9.96875 15.69140625 C6.9287676 14.43576135 4.0209726 13.00155502 1.09375 11.50390625 C1.09375 10.18390625 1.09375 8.86390625 1.09375 7.50390625 C-1.21625 7.17390625 -3.52625 6.84390625 -5.90625 6.50390625 C-3.05855224 0.80851074 -3.05855224 0.80851074 0 0 Z " fill="#E96425" transform="translate(165.90625,289.49609375)"/>
<path d="M0 0 C-3.53684211 3.78947368 -3.53684211 3.78947368 -6.0625 4.9375 C-8.72446254 6.39728591 -9.61111938 8.36112682 -11 11 C-11.598125 10.814375 -12.19625 10.62875 -12.8125 10.4375 C-15.16408762 9.77906313 -15.16408762 9.77906313 -18 11 C-18.33 23.54 -18.66 36.08 -19 49 C-18.34 49.33 -17.68 49.66 -17 50 C-18.485 50.495 -18.485 50.495 -20 51 C-20.42307156 45.20257956 -20.72975985 39.41424205 -20.93383789 33.60498047 C-21.01890833 31.63463924 -21.13463722 29.66535875 -21.2824707 27.69873047 C-22.24325627 14.58018429 -22.24325627 14.58018429 -20 9 C-15.64160381 3.97255942 -6.73286064 -2.24428688 0 0 Z " fill="#FBE1CE" transform="translate(187,204)"/>
<path d="M0 0 C0 2 0 2 -1.0625 3.4375 C-3.24793675 5.19994899 -5.50491447 6.07885607 -8.09765625 7.109375 C-10.78130384 8.36578496 -13.00376035 10.08649383 -15.32421875 11.9140625 C-17 13 -17 13 -19.14453125 13.5234375 C-19.75683594 13.68070312 -20.36914062 13.83796875 -21 14 C-21.33 14.66 -21.66 15.32 -22 16 C-23.77734375 16.8515625 -23.77734375 16.8515625 -25.9375 17.625 C-27.00291016 18.01558594 -27.00291016 18.01558594 -28.08984375 18.4140625 C-30 19 -30 19 -32 19 C-32 20.65 -32 22.3 -32 24 C-35 24 -35 24 -36.6875 22.5 C-37.120625 22.005 -37.55375 21.51 -38 21 C-15.83928571 7.11872587 -15.83928571 7.11872587 -8 5 C-8 4.34 -8 3.68 -8 3 C-2.25 0 -2.25 0 0 0 Z " fill="#C56E41" transform="translate(288,270)"/>
<path d="M0 0 C-0.33 0.66 -0.66 1.32 -1 2 C-0.20335937 1.65775391 -0.20335937 1.65775391 0.609375 1.30859375 C1.31578125 1.02113281 2.0221875 0.73367188 2.75 0.4375 C3.44609375 0.14746094 4.1421875 -0.14257812 4.859375 -0.44140625 C7.30012784 -1.07831803 8.6403655 -0.80248831 11 0 C0.62642369 6.51936219 0.62642369 6.51936219 -5 8 C-5 8.66 -5 9.32 -5 10 C-10.75 13 -10.75 13 -13 13 C-12.25 11.0625 -12.25 11.0625 -11 9 C-8.875 8.25 -8.875 8.25 -7 8 C-6.9175 6.88625 -6.835 5.7725 -6.75 4.625 C-6 1 -6 1 -4.0625 -0.5 C-2 -1 -2 -1 0 0 Z " fill="#EA6727" transform="translate(197,274)"/>
<path d="M0 0 C1.98 0.66 3.96 1.32 6 2 C6 15.86 6 29.72 6 44 C1.75359922 43.15071984 0.07480937 42.67656891 -3.3125 40.4375 C-4.00988281 39.98246094 -4.70726562 39.52742188 -5.42578125 39.05859375 C-6.20501953 38.53458984 -6.20501953 38.53458984 -7 38 C-4.3333581 36.66667905 -2.83319697 37.32897967 0 38 C0 38.66 0 39.32 0 40 C1.65 40 3.3 40 5 40 C4.67 27.79 4.34 15.58 4 3 C2.68 3 1.36 3 0 3 C0 2.01 0 1.02 0 0 Z " fill="#FDE1CE" transform="translate(304,336)"/>
<path d="M0 0 C4.78006608 1.91202643 8.79772953 4.02766235 13 7 C10.21629142 10.26828007 6.56811335 12.12457911 2.875 14.1875 C2.22917969 14.55552734 1.58335937 14.92355469 0.91796875 15.30273438 C-3.85604128 18 -3.85604128 18 -5 18 C-5 16.35 -5 14.7 -5 13 C-4.236875 13.020625 -3.47375 13.04125 -2.6875 13.0625 C0.10185786 13.12942841 0.10185786 13.12942841 3 12 C3 11.01 3 10.02 3 9 C1.35 9 -0.3 9 -2 9 C-1.34 7.68 -0.68 6.36 0 5 C0.99 5 1.98 5 3 5 C3 5.66 3 6.32 3 7 C5.97 7.495 5.97 7.495 9 8 C9 7.34 9 6.68 9 6 C7.7934375 5.814375 7.7934375 5.814375 6.5625 5.625 C5.716875 5.41875 4.87125 5.2125 4 5 C3.67 4.34 3.34 3.68 3 3 C2.01 2.67 1.02 2.34 0 2 C0 1.34 0 0.68 0 0 Z " fill="#CB5C27" transform="translate(224,165)"/>
<path d="M0 0 C2.64 0 5.28 0 8 0 C5.25214237 2.13444066 2.46859452 3.97962441 -0.5625 5.6875 C-1.32691406 6.12449219 -2.09132813 6.56148437 -2.87890625 7.01171875 C-5 8 -5 8 -8 8 C-8 8.66 -8 9.32 -8 10 C-10.26645058 11.34130761 -12.53760097 12.67316234 -14.8125 14 C-15.45509766 14.3815625 -16.09769531 14.763125 -16.75976562 15.15625 C-21.66015625 18 -21.66015625 18 -25 18 C-24.67 17.34 -24.34 16.68 -24 16 C-23.01 16 -22.02 16 -21 16 C-21.33 14.02 -21.66 12.04 -22 10 C-21.34 10 -20.68 10 -20 10 C-20 10.66 -20 11.32 -20 12 C-18.02 12 -16.04 12 -14 12 C-14 11.01 -14 10.02 -14 9 C-12.68 9 -11.36 9 -10 9 C-9.67 8.01 -9.34 7.02 -9 6 C-5.78715662 4.11420063 -3.75366417 3 0 3 C0 2.01 0 1.02 0 0 Z " fill="#D96F3D" transform="translate(303,214)"/>
<path d="M0 0 C3.465 1.485 3.465 1.485 7 3 C7 3.66 7 4.32 7 5 C7.78375 5.20625 8.5675 5.4125 9.375 5.625 C13.41459608 7.15726058 16.78934033 9.20386493 20.453125 11.46875 C23.87789872 13.52781641 27.40080922 15.26705629 31 17 C31 17.66 31 18.32 31 19 C32.98 19.66 34.96 20.32 37 21 C37 21.33 37 21.66 37 22 C35.35 22 33.7 22 32 22 C32 21.34 32 20.68 32 20 C31.34 20 30.68 20 30 20 C30 19.34 30 18.68 30 18 C29.195625 17.731875 28.39125 17.46375 27.5625 17.1875 C23.375 15.79166667 19.1875 14.39583333 15 13 C15 12.34 15 11.68 15 11 C14.34 11 13.68 11 13 11 C13 10.34 13 9.68 13 9 C12.236875 9.04125 11.47375 9.0825 10.6875 9.125 C8 9 8 9 5 7 C5 6.01 5 5.02 5 4 C4.38125 4.185625 3.7625 4.37125 3.125 4.5625 C1 5 1 5 -1 4 C-0.67 2.68 -0.34 1.36 0 0 Z " fill="#C26B3E" transform="translate(219,328)"/>
<path d="M0 0 C-0.144375 0.53625 -0.28875 1.0725 -0.4375 1.625 C-1.09453748 4.39915827 -1.55219948 7.18525388 -2 10 C0.97 10.495 0.97 10.495 4 11 C4 11.66 4 12.32 4 13 C4.99 13.33 5.98 13.66 7 14 C7 14.66 7 15.32 7 16 C8.65 16 10.3 16 12 16 C10.48046875 17.25390625 10.48046875 17.25390625 8 18 C5.20639032 16.77273216 2.87438212 15.53898102 0.3125 13.9375 C-0.37650391 13.54111328 -1.06550781 13.14472656 -1.77539062 12.73632812 C-6.76081484 9.70193521 -6.76081484 9.70193521 -7.95703125 6.19140625 C-7.97121094 5.46824219 -7.98539063 4.74507813 -8 4 C-2.25 0 -2.25 0 0 0 Z " fill="#E36A32" transform="translate(176,82)"/>
<path d="M0 0 C0 1.32 0 2.64 0 4 C-1.65 4.33 -3.3 4.66 -5 5 C-4.34 7.97 -3.68 10.94 -3 14 C-6 14 -6 14 -7.6875 12.625 C-9 11 -9 11 -9 9 C-11.64 9.33 -14.28 9.66 -17 10 C-15.55475933 7.10951866 -13.461031 6.48873019 -10.625 5 C-1.15 0 -1.15 0 0 0 Z " fill="#CC622F" transform="translate(277,192)"/>
<path d="M0 0 C0.66 0.33 1.32 0.66 2 1 C1.01 2.485 1.01 2.485 0 4 C-0.99 4 -1.98 4 -3 4 C-3.12375 4.5775 -3.2475 5.155 -3.375 5.75 C-4 8 -4 8 -6 12 C-9.96 12 -13.92 12 -18 12 C-14.88960604 8.88960604 -11.6778969 6.97235526 -7.875 4.875 C-3.68603269 2.77377804 -3.68603269 2.77377804 0 0 Z " fill="#D06B3F" transform="translate(202,234)"/>
<path d="M0 0 C12.32265552 5.71912721 12.32265552 5.71912721 17 11 C17.99 11.33 18.98 11.66 20 12 C20 12.66 20 13.32 20 14 C20.66 14 21.32 14 22 14 C22 14.99 22 15.98 22 17 C20.02 17 18.04 17 16 17 C15.938125 16.05125 15.87625 15.1025 15.8125 14.125 C15.4103125 12.578125 15.4103125 12.578125 15 11 C12.7193293 9.78702351 12.7193293 9.78702351 10 9 C8.31295807 7.69254251 6.64639965 6.35827971 5 5 C4.071875 4.46375 3.14375 3.9275 2.1875 3.375 C1.465625 2.92125 0.74375 2.4675 0 2 C0 1.34 0 0.68 0 0 Z " fill="#CE5E2B" transform="translate(171,134)"/>
<path d="M0 0 C19.73258004 9.64595104 19.73258004 9.64595104 26 14 C26 14.33 26 14.66 26 15 C18.25 15.125 18.25 15.125 16 14 C16 13.01 16 12.02 16 11 C14.68 10.67 13.36 10.34 12 10 C12 9.34 12 8.68 12 8 C8.34920174 6.38935371 4.9492568 5.55105909 1 5 C0.67 3.35 0.34 1.7 0 0 Z " fill="#C3623C" transform="translate(192,313)"/>
<path d="M0 0 C-0.33 1.32 -0.66 2.64 -1 4 C-1.99 4 -2.98 4 -4 4 C-4 4.66 -4 5.32 -4 6 C-7.81593665 8.72566903 -11.30867676 10 -16 10 C-16 10.66 -16 11.32 -16 12 C-18.35438733 13.42944945 -19.48032433 14.08661261 -22.25 13.625 C-22.8275 13.41875 -23.405 13.2125 -24 13 C-22.02 12.34 -20.04 11.68 -18 11 C-18 10.34 -18 9.68 -18 9 C-16.89591797 8.40251953 -16.89591797 8.40251953 -15.76953125 7.79296875 C-14.79371094 7.26316406 -13.81789062 6.73335938 -12.8125 6.1875 C-11.84957031 5.66542969 -10.88664063 5.14335937 -9.89453125 4.60546875 C-7.99086293 3.54958794 -6.11141174 2.44859359 -4.26171875 1.30078125 C-2 0 -2 0 0 0 Z " fill="#FBEAD4" transform="translate(240,256)"/>
<path d="M0 0 C0.66 0.33 1.32 0.66 2 1 C1.34 2.32 0.68 3.64 0 5 C-1.32 5 -2.64 5 -4 5 C-4 5.66 -4 6.32 -4 7 C-4.7425 6.979375 -5.485 6.95875 -6.25 6.9375 C-8.93233957 6.89438005 -8.93233957 6.89438005 -11.1875 7.5625 C-13 8 -13 8 -15 7 C-15 6.34 -15 5.68 -15 5 C-11.535 4.505 -11.535 4.505 -8 4 C-8 3.01 -8 2.02 -8 1 C-5.26094655 -0.36952673 -3.02912668 -0.12621361 0 0 Z " fill="#D55920" transform="translate(268,201)"/>
<path d="M0 0 C6.90714264 3.27992807 13.56891418 6.82143506 20.125 10.75 C20.77605713 11.13857178 21.42711426 11.52714355 22.09790039 11.92749023 C24.63997861 13.4677874 26.89022455 14.89022455 29 17 C25.00112425 16.42873204 22.40346284 15.12716428 19 13 C17.7625 12.505 17.7625 12.505 16.5 12 C13.80114181 10.92045672 11.48280869 9.50275263 9 8 C8.01 7.67 7.02 7.34 6 7 C6 6.34 6 5.68 6 5 C4.68 4.67 3.36 4.34 2 4 C2 3.34 2 2.68 2 2 C1.34 2 0.68 2 0 2 C0 1.34 0 0.68 0 0 Z " fill="#BD6436" transform="translate(275,361)"/>
<path d="M0 0 C2.64 0.33 5.28 0.66 8 1 C8 1.66 8 2.32 8 3 C8.62648437 3.20496094 9.25296875 3.40992188 9.8984375 3.62109375 C10.71570313 3.89050781 11.53296875 4.15992188 12.375 4.4375 C13.18710938 4.70433594 13.99921875 4.97117188 14.8359375 5.24609375 C17 6 17 6 19 7 C19 7.99 19 8.98 19 10 C19.66 10 20.32 10 21 10 C21 10.66 21 11.32 21 12 C15.84313143 10.53005148 11.65471168 8.21589873 7.125 5.4375 C6.43664062 5.02564453 5.74828125 4.61378906 5.0390625 4.18945312 C3.33910553 3.15902286 1.66662278 2.08351684 0 1 C0 0.67 0 0.34 0 0 Z " fill="#F7E3CF" transform="translate(171,133)"/>
<path d="M0 0 C8.89655172 0.88965517 8.89655172 0.88965517 12 3 C12.33 3.66 12.66 4.32 13 5 C14.65 5 16.3 5 18 5 C18 5.99 18 6.98 18 8 C18.66 8 19.32 8 20 8 C19.67 8.99 19.34 9.98 19 11 C12.56442169 7.82976438 6.17804317 4.65066187 0 1 C0 0.67 0 0.34 0 0 Z " fill="#DF7141" transform="translate(234,128)"/>
<path d="M0 0 C5 2 5 2 7 4 C4.03 3.505 4.03 3.505 1 3 C1.09364965 8.05403538 1.19976907 13.10759821 1.31738281 18.16113281 C1.35563327 19.87981011 1.39049303 21.59856638 1.421875 23.31738281 C1.46761128 25.7900004 1.52559084 28.26207613 1.5859375 30.734375 C1.59748871 31.50118591 1.60903992 32.26799683 1.62094116 33.05804443 C1.72502269 36.83188352 1.89444046 39.79363916 4 43 C2.68 42.34 1.36 41.68 0 41 C0 27.47 0 13.94 0 0 Z " fill="#FEDDC7" transform="translate(167,90)"/>
<path d="M0 0 C1.98 0 3.96 0 6 0 C6.33 0.99 6.66 1.98 7 3 C9.23236116 3.91849826 9.23236116 3.91849826 11.875 4.5 C15.49369745 5.38621162 17.57798425 6.11282891 20 9 C19.67 9.99 19.34 10.98 19 12 C16.77044347 10.72984669 14.54134574 9.45889952 12.3125 8.1875 C11.68666016 7.83107422 11.06082031 7.47464844 10.41601562 7.10742188 C8.60825621 6.0757686 6.80361513 5.03887823 5 4 C4.02417969 3.43925781 3.04835937 2.87851563 2.04296875 2.30078125 C1.36878906 1.87152344 0.69460937 1.44226563 0 1 C0 0.67 0 0.34 0 0 Z " fill="#DC7245" transform="translate(200,108)"/>
<path d="M0 0 C0.66 0.33 1.32 0.66 2 1 C1.67 2.98 1.34 4.96 1 7 C0.34 7 -0.32 7 -1 7 C-1 6.34 -1 5.68 -1 5 C-1.81984375 5.44472656 -2.6396875 5.88945312 -3.484375 6.34765625 C-5.10085938 7.19650391 -5.10085938 7.19650391 -6.75 8.0625 C-7.81734375 8.63097656 -8.8846875 9.19945312 -9.984375 9.78515625 C-13.02593537 11.01044806 -14.04893565 11.25348607 -17 10 C-12.25 7 -12.25 7 -10 7 C-10 6.34 -10 5.68 -10 5 C-8.38007835 4.13624104 -6.75388139 3.28424146 -5.125 2.4375 C-4.22007812 1.96183594 -3.31515625 1.48617187 -2.3828125 0.99609375 C-1.59648437 0.66738281 -0.81015625 0.33867187 0 0 Z " fill="#FBE1C8" transform="translate(305,217)"/>
<path d="M0 0 C-0.61341358 3.51590713 -1.03065977 4.0279937 -3.875 6.625 C-8.48390148 9.75212522 -13.56700837 10.34175327 -19 11 C-16.22312644 7.75177521 -12.60938618 5.87816944 -8.9375 3.8125 C-8.30005859 3.44447266 -7.66261719 3.07644531 -7.00585938 2.69726562 C-2.25687036 0 -2.25687036 0 0 0 Z " fill="#C76742" transform="translate(296,181)"/>
<path d="M0 0 C10.37931034 1.68965517 10.37931034 1.68965517 13 3 C13 3.66 13 4.32 13 5 C14.32 5.66 15.64 6.32 17 7 C17 7.66 17 8.32 17 9 C19.475 9.495 19.475 9.495 22 10 C22 10.66 22 11.32 22 12 C16.73877829 10.48968084 12.32767414 8.09625809 7.625 5.375 C6.88894531 4.95476562 6.15289062 4.53453125 5.39453125 4.1015625 C3.5936235 3.07247236 1.79642682 2.03689244 0 1 C0 0.67 0 0.34 0 0 Z " fill="#D6713E" transform="translate(288,326)"/>
<path d="M0 0 C-8.25 4.62 -16.5 9.24 -25 14 C-25 13.01 -25 12.02 -25 11 C-24.36191406 10.66226563 -23.72382813 10.32453125 -23.06640625 9.9765625 C-22.24011719 9.53054687 -21.41382813 9.08453125 -20.5625 8.625 C-19.73878906 8.18414062 -18.91507813 7.74328125 -18.06640625 7.2890625 C-15.86533422 6.16581441 -15.86533422 6.16581441 -15 4 C-13.00945124 3.30562253 -11.00744615 2.64389782 -9 2 C-7.948125 1.443125 -6.89625 0.88625 -5.8125 0.3125 C-3 -1 -3 -1 0 0 Z " fill="#D17849" transform="translate(266,241)"/>
<path d="M0 0 C0.66 0.33 1.32 0.66 2 1 C1.67 1.99 1.34 2.98 1 4 C0.34 4 -0.32 4 -1 4 C-0.67 4.66 -0.34 5.32 0 6 C2.52733235 6.65555119 2.52733235 6.65555119 5 7 C5 7.99 5 8.98 5 10 C5.66 10 6.32 10 7 10 C7 10.66 7 11.32 7 12 C3.32305352 10.62859834 0.04681411 8.96304199 -3.3125 6.9375 C-4.19550781 6.41027344 -5.07851562 5.88304687 -5.98828125 5.33984375 C-6.65214844 4.89769531 -7.31601563 4.45554687 -8 4 C-8 3.67 -8 3.34 -8 3 C-6.576875 2.814375 -6.576875 2.814375 -5.125 2.625 C-1.91332809 2.28312823 -1.91332809 2.28312823 0 0 Z " fill="#FAEADD" transform="translate(190,303)"/>
<path d="M0 0 C4.53847198 1.34927545 8.31932246 3.19159348 12.375 5.625 C13.43460937 6.25664062 14.49421875 6.88828125 15.5859375 7.5390625 C16.38257813 8.02117187 17.17921875 8.50328125 18 9 C15 10 15 10 12.1875 8.6875 C11.135625 8.130625 10.08375 7.57375 9 7 C5.92438754 5.64019119 5.92438754 5.64019119 3 5 C2.01 5.66 1.02 6.32 0 7 C0 4.69 0 2.38 0 0 Z " fill="#FCECDD" transform="translate(256,142)"/>
<path d="M0 0 C0.66 0.33 1.32 0.66 2 1 C2.09978121 4.49234244 1.77842938 7.59437148 1 11 C0.01 11 -0.98 11 -2 11 C-2 10.34 -2 9.68 -2 9 C-5.465 7.02 -5.465 7.02 -9 5 C-8.34 4.34 -7.68 3.68 -7 3 C-5.7625 3.0309375 -5.7625 3.0309375 -4.5 3.0625 C-3.675 3.041875 -2.85 3.02125 -2 3 C-1.34 2.01 -0.68 1.02 0 0 Z " fill="#F8F1E5" transform="translate(238,163)"/>
<path d="M0 0 C-0.33 0.99 -0.66 1.98 -1 3 C-1.66 3 -2.32 3 -3 3 C-3 3.66 -3 4.32 -3 5 C-2.01 4.34 -1.02 3.68 0 3 C0.99 3.33 1.98 3.66 3 4 C2.67 5.65 2.34 7.3 2 9 C-1.0831351 7.80100302 -4.06279492 6.52299523 -7 5 C-7 4.34 -7 3.68 -7 3 C-7.66 2.67 -8.32 2.34 -9 2 C-5.86501708 0.14223235 -3.62528568 -0.20140476 0 0 Z " fill="#FCF2EB" transform="translate(257,342)"/>
<path d="M0 0 C-2.16323247 2.31242092 -4.37647804 4.0156396 -7.0625 5.6875 C-8.10083984 6.34298828 -8.10083984 6.34298828 -9.16015625 7.01171875 C-11 8 -11 8 -13 8 C-12.25 3.25 -12.25 3.25 -10 1 C-6.68421778 -0.18420794 -3.49088913 -0.07933839 0 0 Z " fill="#FAF5E3" transform="translate(306,258)"/>
<path d="M0 0 C1.32 0 2.64 0 4 0 C4 1.32 4 2.64 4 4 C3.01 4 2.02 4 1 4 C1.928125 4.928125 1.928125 4.928125 2.875 5.875 C4.25 7.25 5.625 8.625 7 10 C6 13 6 13 3 15 C0.8125 14.625 0.8125 14.625 -1 14 C0.65 13.01 2.3 12.02 4 11 C2.02 8.69 0.04 6.38 -2 4 C-1.34 2.68 -0.68 1.36 0 0 Z " fill="#E26C3C" transform="translate(304,162)"/>
<path d="M0 0 C2.0625 0.4375 2.0625 0.4375 4 1 C1.38029207 2.53064939 -1.24501643 4.04969748 -3.875 5.5625 C-4.99455078 6.21895508 -4.99455078 6.21895508 -6.13671875 6.88867188 C-6.85214844 7.29794922 -7.56757813 7.70722656 -8.3046875 8.12890625 C-9.2944458 8.70233765 -9.2944458 8.70233765 -10.30419922 9.28735352 C-10.86381348 9.52252686 -11.42342773 9.7577002 -12 10 C-12.66 9.67 -13.32 9.34 -14 9 C-9.77592183 4.26079035 -7.18483815 2.3339847 -1 1 C-0.67 0.67 -0.34 0.34 0 0 Z " fill="#FDEADC" transform="translate(228,217)"/>
<path d="M0 0 C1.65 0.33 3.3 0.66 5 1 C5 1.66 5 2.32 5 3 C5.66 3 6.32 3 7 3 C7 3.66 7 4.32 7 5 C8.32 5.33 9.64 5.66 11 6 C11 6.66 11 7.32 11 8 C9.3125 8.6875 9.3125 8.6875 7 9 C4.25 7.75 4.25 7.75 2 6 C2 5.01 2 4.02 2 3 C1.01 3 0.02 3 -1 3 C-0.67 2.01 -0.34 1.02 0 0 Z " fill="#D3581D" transform="translate(270,360)"/>
<path d="M0 0 C2.31 0 4.62 0 7 0 C7.33 0.66 7.66 1.32 8 2 C9.64363134 2.72159424 11.31050386 3.39351421 13 4 C13 4.66 13 5.32 13 6 C13.99 6.33 14.98 6.66 16 7 C16.33 7.99 16.66 8.98 17 10 C12.97683781 8.51463956 9.38707358 6.60123107 5.6875 4.4375 C4.61886719 3.81746094 3.55023438 3.19742187 2.44921875 2.55859375 C1.64097656 2.04425781 0.83273437 1.52992188 0 1 C0 0.67 0 0.34 0 0 Z " fill="#F6DCC9" transform="translate(264,354)"/>
<path d="M0 0 C-2.58267413 1.45951119 -5.16610741 2.91764881 -7.75 4.375 C-8.47960937 4.7875 -9.20921875 5.2 -9.9609375 5.625 C-10.66992188 6.02460938 -11.37890625 6.42421875 -12.109375 6.8359375 C-13.08342285 7.38580322 -13.08342285 7.38580322 -14.07714844 7.94677734 C-16.02837191 9.01554043 -18.00410556 10.01758503 -20 11 C-20 10.01 -20 9.02 -20 8 C-19.01 8 -18.02 8 -17 8 C-17 7.34 -17 6.68 -17 6 C-15.35 5.67 -13.7 5.34 -12 5 C-11.67 4.01 -11.34 3.02 -11 2 C-9.00390625 1.015625 -9.00390625 1.015625 -6.5625 0.25 C-5.75941406 -0.01296875 -4.95632812 -0.2759375 -4.12890625 -0.546875 C-2 -1 -2 -1 0 0 Z " fill="#D57244" transform="translate(193,199)"/>
<path d="M0 0 C2.64956093 1.28445456 5.29453793 2.57709679 7.9375 3.875 C8.69224609 4.23980469 9.44699219 4.60460937 10.22460938 4.98046875 C11.30258789 5.51220703 11.30258789 5.51220703 12.40234375 6.0546875 C13.06741943 6.37937012 13.73249512 6.70405273 14.41772461 7.03857422 C16 8 16 8 17 10 C14.36 9.67 11.72 9.34 9 9 C9 8.34 9 7.68 9 7 C7.35 6.67 5.7 6.34 4 6 C4 5.34 4 4.68 4 4 C3.01 4 2.02 4 1 4 C0.67 2.68 0.34 1.36 0 0 Z " fill="#FCF0DD" transform="translate(288,160)"/>
<path d="M0 0 C1.98 0.66 3.96 1.32 6 2 C6 2.66 6 3.32 6 4 C6.7425 4.28875 7.485 4.5775 8.25 4.875 C10.56739797 5.82302644 12.77917115 6.84845911 15 8 C11.23375329 9.25541557 9.62811066 8.37061958 6 7 C6 7.66 6 8.32 6 9 C4.68 9 3.36 9 2 9 C2 8.34 2 7.68 2 7 C2.99 7 3.98 7 5 7 C4.67 5.68 4.34 4.36 4 3 C2.68 2.67 1.36 2.34 0 2 C0 1.34 0 0.68 0 0 Z " fill="#FDE6D4" transform="translate(190,103)"/>
<path d="M0 0 C3.125 -0.1875 3.125 -0.1875 6 0 C3.0098979 3.33511388 0.10501426 5.21521119 -4 7 C-4.66 7 -5.32 7 -6 7 C-6 7.66 -6 8.32 -6 9 C-7.32 9.33 -8.64 9.66 -10 10 C-7.88627979 5.77255959 -6.38410156 4.57378005 -2 3 C-1.34 2.01 -0.68 1.02 0 0 Z " fill="#DB7B50" transform="translate(228,258)"/>
<path d="M0 0 C2.29679188 1.09442433 4.58704964 2.19986661 6.875 3.3125 C7.52597656 3.62123047 8.17695313 3.92996094 8.84765625 4.24804688 C12.19676398 5.88807385 13.89005879 6.83508818 16 10 C15.01 10 14.02 10 13 10 C13 9.34 13 8.68 13 8 C12.01 8.33 11.02 8.66 10 9 C5.88156648 7.33510134 2.86163385 5.41194805 0 2 C0 1.34 0 0.68 0 0 Z " fill="#FBE1D0" transform="translate(246,302)"/>
<path d="M0 0 C8.13636364 -0.31293706 8.13636364 -0.31293706 11 2 C11.75 4.625 11.75 4.625 12 7 C7.39104317 5.68315519 3.85859765 3.84801255 0 1 C0 0.67 0 0.34 0 0 Z " fill="#DB7741" transform="translate(266,313)"/>
<path d="M0 0 C2.64 0.66 5.28 1.32 8 2 C5.27521226 5.36591427 1.93143208 6.44226276 -2 8 C-2 4.79604584 -1.25664978 2.90600261 0 0 Z " fill="#FAEFDE" transform="translate(283,265)"/>
<path d="M0 0 C4.78006608 1.91202643 8.79772953 4.02766235 13 7 C10.64722731 9.72426311 8.37503669 10.8141763 5 12 C5.9977758 9.00667261 6.7522025 8.05233685 9 6 C7.7934375 5.814375 7.7934375 5.814375 6.5625 5.625 C5.716875 5.41875 4.87125 5.2125 4 5 C3.67 4.34 3.34 3.68 3 3 C2.01 2.67 1.02 2.34 0 2 C0 1.34 0 0.68 0 0 Z " fill="#C46638" transform="translate(224,165)"/>
<path d="M0 0 C0 0.66 0 1.32 0 2 C-2.95481492 4.74375671 -3.77471908 5 -8 5 C-8 5.99 -8 6.98 -8 8 C-10.64 8.33 -13.28 8.66 -16 9 C-13.50506504 6.18368359 -10.73437182 4.59044019 -7.4375 2.8125 C-6.46683594 2.28269531 -5.49617187 1.75289063 -4.49609375 1.20703125 C-2 0 -2 0 0 0 Z " fill="#F9D6C0" transform="translate(192,284)"/>
<path d="M0 0 C1.21236328 0.04060547 1.21236328 0.04060547 2.44921875 0.08203125 C3.06410156 0.11683594 3.67898438 0.15164062 4.3125 0.1875 C-4.4375 7.1875 -4.4375 7.1875 -8.6875 7.1875 C-7.75422802 1.77452251 -5.49696006 -0.23899826 0 0 Z " fill="#FCE9D7" transform="translate(302.6875,173.8125)"/>
<path d="M0 0 C-1.07401108 2.91517292 -1.77810176 4.77810176 -4 7 C-7.625 6.625 -7.625 6.625 -11 6 C-3.8 0 -3.8 0 0 0 Z " fill="#FBE8D4" transform="translate(216,270)"/>
<path d="M0 0 C1.65 0 3.3 0 5 0 C0.22486164 4.28115853 -5.36156231 7.03759841 -11 10 C-10.67 8.68 -10.34 7.36 -10 6 C-9.01 6 -8.02 6 -7 6 C-7 5.34 -7 4.68 -7 4 C-5.02 3.67 -3.04 3.34 -1 3 C-0.67 2.01 -0.34 1.02 0 0 Z " fill="#FCEBD7" transform="translate(187,240)"/>
<path d="M0 0 C0.99 0.66 1.98 1.32 3 2 C-3.93 5.465 -3.93 5.465 -11 9 C-11 8.01 -11 7.02 -11 6 C-11.99 5.67 -12.98 5.34 -14 5 C-12.906875 4.87625 -11.81375 4.7525 -10.6875 4.625 C-6.92618198 4.24535199 -6.92618198 4.24535199 -4 2 C-2.68 2 -1.36 2 0 2 C0 1.34 0 0.68 0 0 Z " fill="#FBF2E3" transform="translate(288,182)"/>
<path d="M0 0 C-2.09679104 1.36695222 -4.2010938 2.71846991 -6.3125 4.0625 C-6.90740234 4.45244141 -7.50230469 4.84238281 -8.11523438 5.24414062 C-9.69609635 6.24211495 -11.34594712 7.12868696 -13 8 C-13.99 7.67 -14.98 7.34 -16 7 C-15.34 6.67 -14.68 6.34 -14 6 C-14 5.34 -14 4.68 -14 4 C-12.23494565 3.13395466 -10.46271926 2.28251358 -8.6875 1.4375 C-7.70136719 0.96183594 -6.71523437 0.48617187 -5.69921875 -0.00390625 C-3 -1 -3 -1 0 0 Z " fill="#CF713B" transform="translate(216,185)"/>
<path d="M0 0 C9.04831933 0.76680672 9.04831933 0.76680672 13 4 C13.8125 6.1875 13.8125 6.1875 14 8 C9.02790438 6.23570801 4.56561939 3.6060834 0 1 C0 0.67 0 0.34 0 0 Z " fill="#D87D4A" transform="translate(220,120)"/>
<path d="M0 0 C0.81791016 0.56267578 0.81791016 0.56267578 1.65234375 1.13671875 C6.95305535 4.7339538 12.35048832 7.98158478 18 11 C14.86650268 12.04449911 14.01031744 11.93423645 11 11 C11 10.34 11 9.68 11 9 C10.29875 8.731875 9.5975 8.46375 8.875 8.1875 C5.8350176 6.9318551 2.9272226 5.49764877 0 4 C0 2.68 0 1.36 0 0 Z " fill="#D56B3E" transform="translate(167,297)"/>
<path d="M0 0 C0.33 0.99 0.66 1.98 1 3 C-1.31 3.66 -3.62 4.32 -6 5 C-6 5.99 -6 6.98 -6 8 C-7.98 8 -9.96 8 -12 8 C-12 7.34 -12 6.68 -12 6 C-8.04 4.02 -4.08 2.04 0 0 Z " fill="#FBDCC8" transform="translate(204,276)"/>
<path d="M0 0 C0.99 0 1.98 0 3 0 C3.33 1.32 3.66 2.64 4 4 C5.65 4.33 7.3 4.66 9 5 C6.64722731 7.72426311 4.37503669 8.8141763 1 10 C1.020625 9.278125 1.04125 8.55625 1.0625 7.8125 C1.00179441 5.08074862 0.60741465 2.65743909 0 0 Z " fill="#DD6C38" transform="translate(208,263)"/>
<path d="M0 0 C5.77372322 2.83458444 11.45217559 5.74366828 17 9 C14 10 14 10 11.51953125 9.00390625 C10.62621094 8.52824219 9.73289063 8.05257812 8.8125 7.5625 C7.91144531 7.08941406 7.01039063 6.61632812 6.08203125 6.12890625 C5.39496094 5.75636719 4.70789063 5.38382813 4 5 C4 4.34 4 3.68 4 3 C2.35 2.67 0.7 2.34 -1 2 C-0.67 1.34 -0.34 0.68 0 0 Z " fill="#FCE7D3" transform="translate(233,128)"/>
<path d="M0 0 C2.31 0.33 4.62 0.66 7 1 C7 1.66 7 2.32 7 3 C8.98 3 10.96 3 13 3 C13 4.32 13 5.64 13 7 C7.92990529 6.52467862 4.02506742 3.95637706 0 1 C0 0.67 0 0.34 0 0 Z " fill="#F5D5BF" transform="translate(297,373)"/>
<path d="M0 0 C0 0.66 0 1.32 0 2 C-2.31 2 -4.62 2 -7 2 C-7.66 3.32 -8.32 4.64 -9 6 C-9.99 6 -10.98 6 -12 6 C-12 4.68 -12 3.36 -12 2 C-8.09971775 -0.60018816 -4.52565431 -0.15085514 0 0 Z " fill="#F8601C" transform="translate(220,256)"/>
<path d="M0 0 C0.721875 0.144375 1.44375 0.28875 2.1875 0.4375 C3.5796875 0.7159375 3.5796875 0.7159375 5 1 C5.825 1.185625 6.65 1.37125 7.5 1.5625 C10.05167134 2.00904248 12.41516939 2.0738523 15 2 C14.01 3.32 13.02 4.64 12 6 C12.66 6 13.32 6 14 6 C14 6.66 14 7.32 14 8 C12.68 7.67 11.36 7.34 10 7 C10 6.34 10 5.68 10 5 C8.63875 4.5978125 8.63875 4.5978125 7.25 4.1875 C4.28528037 3.10423706 2.3830246 2.01640543 0 0 Z " fill="#E06F44" transform="translate(186,100)"/>
<path d="M0 0 C4.44441654 2.16800807 8.72509633 4.52055587 13 7 C13 7.33 13 7.66 13 8 C9.10698835 8.37076301 7.19422173 8.10260771 3.6875 6.25 C1 4 1 4 0.125 1.75 C0.08375 1.1725 0.0425 0.595 0 0 Z " fill="#FDE1D0" transform="translate(291,328)"/>
<path d="M0 0 C0 2 0 2 -1.0625 3.4375 C-3.8390762 5.67667436 -6.64610323 6.82319411 -10 8 C-12.22265625 7.578125 -12.22265625 7.578125 -14 7 C-12.04480616 5.82807953 -10.0857461 4.6626071 -8.125 3.5 C-7.03445312 2.8503125 -5.94390625 2.200625 -4.8203125 1.53125 C-2 0 -2 0 0 0 Z " fill="#FCE5CB" transform="translate(254,248)"/>
<path d="M0 0 C0.825 0.309375 1.65 0.61875 2.5 0.9375 C6.39126155 2.11877583 9.96166953 2.58224168 14 3 C14 3.99 14 4.98 14 6 C11.26980214 7.06528748 10.20701188 7.07998186 7.421875 6.00390625 C6.54015625 5.52824219 5.6584375 5.05257812 4.75 4.5625 C3.85796875 4.08941406 2.9659375 3.61632812 2.046875 3.12890625 C1.37140625 2.75636719 0.6959375 2.38382813 0 2 C0 1.34 0 0.68 0 0 Z " fill="#E4571A" transform="translate(213,171)"/>
<path d="M0 0 C3.465 1.485 3.465 1.485 7 3 C6.071875 3.4021875 6.071875 3.4021875 5.125 3.8125 C2.7004767 4.95556848 2.7004767 4.95556848 1 8 C-0.32 7.67 -1.64 7.34 -3 7 C-2.01 4.69 -1.02 2.38 0 0 Z " fill="#CF5D2E" transform="translate(185,309)"/>
<path d="M0 0 C0.2475 0.639375 0.495 1.27875 0.75 1.9375 C1.79734983 4.17876824 1.79734983 4.17876824 4 4.625 C4.66 4.74875 5.32 4.8725 6 5 C6.66 5.66 7.32 6.32 8 7 C10.57061311 7.64767793 10.57061311 7.64767793 13 8 C11.02 8.99 11.02 8.99 9 10 C8.39671875 9.59007812 7.7934375 9.18015625 7.171875 8.7578125 C6.37265625 8.21898437 5.5734375 7.68015625 4.75 7.125 C3.96109375 6.59132813 3.1721875 6.05765625 2.359375 5.5078125 C0.28444308 4.18177985 -1.77614972 3.05071825 -4 2 C-2.68 1.34 -1.36 0.68 0 0 Z " fill="#DA724E" transform="translate(255,303)"/>
<path d="M0 0 C0.66 0.66 1.32 1.32 2 2 C2.99 2.33 3.98 2.66 5 3 C3.68 3.33 2.36 3.66 1 4 C1 4.66 1 5.32 1 6 C-4.75 9 -4.75 9 -7 9 C-6.25 7.0625 -6.25 7.0625 -5 5 C-2.875 4.25 -2.875 4.25 -1 4 C-0.67 2.68 -0.34 1.36 0 0 Z " fill="#DC6F3C" transform="translate(191,278)"/>
<path d="M0 0 C-1.36983503 3.16115776 -1.9890638 3.9927092 -5 6 C-7.26171875 6.6328125 -7.26171875 6.6328125 -9.6875 7.125 C-10.49574219 7.29257813 -11.30398438 7.46015625 -12.13671875 7.6328125 C-12.75160156 7.75398437 -13.36648437 7.87515625 -14 8 C-4.57142857 0 -4.57142857 0 0 0 Z " fill="#FDEAD7" transform="translate(268,240)"/>
<path d="M0 0 C2.97 0 5.94 0 9 0 C9 0.99 9 1.98 9 3 C8.67 3.33 8.34 3.66 8 4 C5.66055264 3.71269945 3.3260857 3.38063221 1 3 C0.67 2.01 0.34 1.02 0 0 Z " fill="#F96113" transform="translate(305,166)"/>
<path d="M0 0 C5.96652354 1.57013777 10.82909025 4.75029782 16 8 C13 9 13 9 10.87890625 8.07421875 C9.73228516 7.38779297 9.73228516 7.38779297 8.5625 6.6875 C5.74494853 5.02366673 2.94494426 3.42886817 0 2 C0 1.34 0 0.68 0 0 Z " fill="#FDE3D1" transform="translate(274,319)"/>
<path d="M0 0 C-1.95519384 1.17192047 -3.9142539 2.3373929 -5.875 3.5 C-6.96554688 4.1496875 -8.05609375 4.799375 -9.1796875 5.46875 C-12 7 -12 7 -14 7 C-14 6.34 -14 5.68 -14 5 C-13.34 5 -12.68 5 -12 5 C-12 4.34 -12 3.68 -12 3 C-10.75823305 2.29773859 -9.50614401 1.61370891 -8.25 0.9375 C-7.20585937 0.36322266 -7.20585937 0.36322266 -6.140625 -0.22265625 C-3.63859372 -1.1312406 -2.4667645 -0.88336837 0 0 Z " fill="#FCEAD1" transform="translate(206,233)"/>
<path d="M0 0 C0.042721 1.66611905 0.04063832 3.33382885 0 5 C-0.33 5.33 -0.66 5.66 -1 6 C-1.23527773 8.34987262 -1.41386417 10.70556039 -1.5625 13.0625 C-1.64628906 14.35285156 -1.73007812 15.64320313 -1.81640625 16.97265625 C-1.87699219 17.97167969 -1.93757813 18.97070312 -2 20 C-2.33 20 -2.66 20 -3 20 C-3 13.73 -3 7.46 -3 1 C-1 0 -1 0 0 0 Z " fill="#E7652C" transform="translate(318,220)"/>
<path d="M0 0 C0.33 0.66 0.66 1.32 1 2 C0.01 2 -0.98 2 -2 2 C-2.66 3.32 -3.32 4.64 -4 6 C-4.99 6 -5.98 6 -7 6 C-7 4.35 -7 2.7 -7 1 C-4.53721199 -0.231394 -2.7204945 -0.07159196 0 0 Z " fill="#CF5D23" transform="translate(199,151)"/>
<path d="M0 0 C2.64 0 5.28 0 8 0 C1.14726027 5.19863014 1.14726027 5.19863014 -3.1875 5.625 C-4.445625 5.74875 -5.70375 5.8725 -7 6 C-6.67 5.34 -6.34 4.68 -6 4 C-2.9375 3.375 -2.9375 3.375 0 3 C0 2.01 0 1.02 0 0 Z " fill="#DD6E34" transform="translate(303,214)"/>
<path d="M0 0 C0.66 0.33 1.32 0.66 2 1 C-0.88406243 4.40843742 -2.3708265 5.86591384 -6.8125 6.8125 C-8.3903125 6.9053125 -8.3903125 6.9053125 -10 7 C-7.01767477 3.67356033 -4.13629913 1.70847138 0 0 Z " fill="#FAE3CC" transform="translate(234,174)"/>
<path d="M0 0 C4.99213851 0.46801299 9.12963993 2.91715737 13 6 C13 6.66 13 7.32 13 8 C8.27626146 6.37621488 4.05818166 3.89006982 0 1 C0 0.67 0 0.34 0 0 Z " fill="#D07C4D" transform="translate(280,154)"/>
<path d="M0 0 C3.37503669 1.1858237 5.64722731 2.27573689 8 5 C5.1875 5.625 5.1875 5.625 2 6 C1.01 5.34 0.02 4.68 -1 4 C-0.67 2.68 -0.34 1.36 0 0 Z " fill="#FAF2DE" transform="translate(266,314)"/>
<path d="M0 0 C-0.33 1.32 -0.66 2.64 -1 4 C-1.639375 4.103125 -2.27875 4.20625 -2.9375 4.3125 C-3.618125 4.539375 -4.29875 4.76625 -5 5 C-5.33 5.99 -5.66 6.98 -6 8 C-7.32 7.67 -8.64 7.34 -10 7 C-10 6.34 -10 5.68 -10 5 C-8.3203125 3.7109375 -8.3203125 3.7109375 -6.125 2.375 C-5.40570313 1.92898438 -4.68640625 1.48296875 -3.9453125 1.0234375 C-2 0 -2 0 0 0 Z " fill="#C3704E" transform="translate(250,292)"/>
<path d="M0 0 C2.97 0.495 2.97 0.495 6 1 C5.34 2.32 4.68 3.64 4 5 C2.35 5 0.7 5 -1 5 C-0.67 3.35 -0.34 1.7 0 0 Z " fill="#DF5617" transform="translate(264,201)"/>
<path d="M0 0 C0.66 0.33 1.32 0.66 2 1 C1 4 1 4 -2.3125 5.75 C-5.93653994 6.97848812 -6.6258971 7.10235591 -10 6 C-8.3811004 4.96951963 -6.75467511 3.95085322 -5.125 2.9375 C-4.22007812 2.36902344 -3.31515625 1.80054688 -2.3828125 1.21484375 C-1.20332031 0.61349609 -1.20332031 0.61349609 0 0 Z " fill="#FDE0CD" transform="translate(196,196)"/>
<path d="M0 0 C3.465 1.485 3.465 1.485 7 3 C7 3.99 7 4.98 7 6 C3.85262818 5.30058404 0.97411124 4.23921302 -2 3 C-1.34 2.67 -0.68 2.34 0 2 C0 1.34 0 0.68 0 0 Z " fill="#DA591B" transform="translate(299,379)"/>
<path d="M0 0 C5.53846154 0.61538462 5.53846154 0.61538462 7.875 2.5625 C8.431875 3.2740625 8.431875 3.2740625 9 4 C1.25 4.125 1.25 4.125 -1 3 C-0.67 2.01 -0.34 1.02 0 0 Z " fill="#CD6431" transform="translate(209,324)"/>
<path d="M0 0 C2.97 0.33 5.94 0.66 9 1 C9 1.99 9 2.98 9 4 C9.66 4 10.32 4 11 4 C11 4.66 11 5.32 11 6 C6.49197399 4.74194623 3.5087188 3.09592835 0 0 Z " fill="#FAE2CE" transform="translate(197,315)"/>
<path d="M0 0 C0 0.66 0 1.32 0 2 C-0.99 2 -1.98 2 -3 2 C-3.15149298 5.62885324 -3.15149298 5.62885324 -2 9 C-4.475 8.01 -4.475 8.01 -7 7 C-7 5.68 -7 4.36 -7 3 C-2.92857143 0 -2.92857143 0 0 0 Z " fill="#FAD9B6" transform="translate(176,293)"/>
<path d="M0 0 C0 1.32 0 2.64 0 4 C-2.97 4 -5.94 4 -9 4 C-7 1 -7 1 -5.0625 0.3125 C-3 0 -3 0 0 0 Z " fill="#E56728" transform="translate(223,258)"/>
<path d="M0 0 C0 0.66 0 1.32 0 2 C-0.66 2 -1.32 2 -2 2 C-2.33 2.99 -2.66 3.98 -3 5 C-4.65 5 -6.3 5 -8 5 C-8 5.66 -8 6.32 -8 7 C-9.32 6.67 -10.64 6.34 -12 6 C-10.37829621 4.99466333 -8.75252763 3.99588093 -7.125 3 C-5.76761719 2.1646875 -5.76761719 2.1646875 -4.3828125 1.3125 C-2 0 -2 0 0 0 Z " fill="#C37048" transform="translate(184,246)"/>
<path d="M0 0 C0.66 0.33 1.32 0.66 2 1 C2 1.66 2 2.32 2 3 C1.01 3.495 1.01 3.495 0 4 C0.33 4.66 0.66 5.32 1 6 C-1.97 6 -4.94 6 -8 6 C-5.36435544 3.36435544 -3.27929831 1.68169144 0 0 Z " fill="#F8EAD7" transform="translate(276,234)"/>
<path d="M0 0 C-2 3 -2 3 -4.6015625 3.73046875 C-6.09816406 3.95669922 -6.09816406 3.95669922 -7.625 4.1875 C-8.62789063 4.34605469 -9.63078125 4.50460938 -10.6640625 4.66796875 C-11.82035156 4.83232422 -11.82035156 4.83232422 -13 5 C-8.94501879 0.8278228 -5.96213219 -1.87381297 0 0 Z " fill="#D07149" transform="translate(290,187)"/>
<path d="M0 0 C-3.88309282 3.64775386 -6.71201818 4.58525633 -12 5 C-8.77464852 1.23708994 -4.90542108 -1.63514036 0 0 Z " fill="#F9D9CA" transform="translate(225,182)"/>
<path d="M0 0 C1.98270912 0.95098266 3.96108379 1.91100703 5.9375 2.875 C7.03964844 3.40867188 8.14179688 3.94234375 9.27734375 4.4921875 C12 6 12 6 13 8 C8.77096401 6.69101267 4.83550432 5.22994437 1 3 C0.67 2.01 0.34 1.02 0 0 Z " fill="#BF623E" transform="translate(171,134)"/>
<path d="M0 0 C0.66 0 1.32 0 2 0 C3.85776765 3.13498292 4.20140476 5.37471432 4 9 C3.01 9.33 2.02 9.66 1 10 C0 2.25 0 2.25 0 0 Z " fill="#DE542C" transform="translate(169,133)"/>
<path d="M0 0 C3.52269485 -0.4025937 4.79940808 -0.13372795 7.8125 1.875 C8.534375 2.57625 9.25625 3.2775 10 4 C10 4.66 10 5.32 10 6 C6.40992874 4.66654496 3.20429093 3.1056769 0 1 C0 0.67 0 0.34 0 0 Z " fill="#F8DDC8" transform="translate(287,367)"/>
<path d="M0 0 C1.65 0 3.3 0 5 0 C5 1.32 5 2.64 5 4 C2.69 4 0.38 4 -2 4 C-1.34 2.68 -0.68 1.36 0 0 Z " fill="#E35A0E" transform="translate(279,276)"/>
<path d="M0 0 C-1.62170379 1.00533667 -3.24747237 2.00411907 -4.875 3 C-6.23238281 3.8353125 -6.23238281 3.8353125 -7.6171875 4.6875 C-10 6 -10 6 -12 6 C-12 5.01 -12 4.02 -12 3 C-10.75823305 2.29773859 -9.50614401 1.61370891 -8.25 0.9375 C-7.20585937 0.36322266 -7.20585937 0.36322266 -6.140625 -0.22265625 C-3.63859372 -1.1312406 -2.4667645 -0.88336837 0 0 Z " fill="#CC7847" transform="translate(278,234)"/>
<path d="M0 0 C-2.51830747 3.12270126 -3.7261549 3.94523098 -7.75 4.75 C-9.35875 4.87375 -9.35875 4.87375 -11 5 C-4.83050847 -1.61016949 -4.83050847 -1.61016949 0 0 Z " fill="#FBDAC4" transform="translate(187,204)"/>
<path d="M0 0 C0.66 0.33 1.32 0.66 2 1 C1.67 3.31 1.34 5.62 1 8 C-0.32 7.67 -1.64 7.34 -3 7 C-3 5.35 -3 3.7 -3 2 C-2.34 2 -1.68 2 -1 2 C-0.67 1.34 -0.34 0.68 0 0 Z " fill="#D86518" transform="translate(167,133)"/>
<path d="M0 0 C0 0.99 0 1.98 0 3 C-0.66 3 -1.32 3 -2 3 C-2 3.66 -2 4.32 -2 5 C-3.98 5.33 -5.96 5.66 -8 6 C-7.375 4.125 -7.375 4.125 -6 2 C-2.875 0.75 -2.875 0.75 0 0 Z " fill="#D65729" transform="translate(303,263)"/>
<path d="M0 0 C0.66 0.33 1.32 0.66 2 1 C-0.51830747 4.12270126 -1.7261549 4.94523098 -5.75 5.75 C-7.35875 5.87375 -7.35875 5.87375 -9 6 C-6.45368965 3.02930459 -3.57769851 1.5224249 0 0 Z " fill="#C37447" transform="translate(222,223)"/>
<path d="M0 0 C0 0.99 0 1.98 0 3 C-2.31 3.33 -4.62 3.66 -7 4 C-7 4.66 -7 5.32 -7 6 C-8.32 5.67 -9.64 5.34 -11 5 C-9.54462432 4.16151196 -8.08559627 3.32936066 -6.625 2.5 C-5.81289062 2.0359375 -5.00078125 1.571875 -4.1640625 1.09375 C-2 0 -2 0 0 0 Z " fill="#C47854" transform="translate(260,202)"/>
<path d="M0 0 C1.65 0 3.3 0 5 0 C5.33 1.32 5.66 2.64 6 4 C4.02 4 2.04 4 0 4 C0 2.68 0 1.36 0 0 Z " fill="#E2570C" transform="translate(260,356)"/>
<path d="M0 0 C-0.33 1.65 -0.66 3.3 -1 5 C-3.91517292 3.92598892 -5.77810176 3.22189824 -8 1 C-3.375 -1.125 -3.375 -1.125 0 0 Z " fill="#F5E6D2" transform="translate(260,346)"/>
<path d="M0 0 C0 0.66 0 1.32 0 2 C-1.98 2.99 -1.98 2.99 -4 4 C-5.65 2.68 -7.3 1.36 -9 0 C-5.52176885 -1.15941038 -3.54104422 -0.70820884 0 0 Z " fill="#D36639" transform="translate(253,300)"/>
<path d="M0 0 C1.98 0.66 3.96 1.32 6 2 C3.31158141 4.25245881 1.35358125 5.88213958 -2 7 C-1.67 6.01 -1.34 5.02 -1 4 C-0.65772583 2.66893378 -0.32248257 1.33599921 0 0 Z " fill="#E66D39" transform="translate(170,290)"/>
<path d="M0 0 C0.33 0.66 0.66 1.32 1 2 C3.02463255 2.65213292 3.02463255 2.65213292 5 3 C5 3.33 5 3.66 5 4 C1.04 4 -2.92 4 -7 4 C-4.1709277 1.1709277 -3.61855575 0.62388892 0 0 Z " fill="#CA6536" transform="translate(191,242)"/>
<path d="M0 0 C0.66 0.66 1.32 1.32 2 2 C0.71186658 2.83878455 -0.58063256 3.67086783 -1.875 4.5 C-2.59429687 4.9640625 -3.31359375 5.428125 -4.0546875 5.90625 C-6 7 -6 7 -8 7 C-6.125 3.125 -6.125 3.125 -5 2 C-3.33382885 1.95936168 -1.66611905 1.957279 0 2 C0 1.34 0 0.68 0 0 Z " fill="#FCEADB" transform="translate(240,210)"/>
<path d="M0 0 C-1.28813342 0.83878455 -2.58063256 1.67086783 -3.875 2.5 C-4.59429687 2.9640625 -5.31359375 3.428125 -6.0546875 3.90625 C-8 5 -8 5 -10 5 C-9.875 3.125 -9.875 3.125 -9 1 C-5.3931275 -0.64661571 -3.8148779 -1.27162597 0 0 Z " fill="#FDEEDA" transform="translate(256,204)"/>
<path d="M0 0 C1.65 0.33 3.3 0.66 5 1 C3.46218054 4.07563891 1.08755777 4.70322574 -2 6 C-2.99 5.67 -3.98 5.34 -5 5 C-4.34 4.34 -3.68 3.68 -3 3 C-2.01 3 -1.02 3 0 3 C0 2.01 0 1.02 0 0 Z " fill="#F9E6DF" transform="translate(260,197)"/>
<path d="M0 0 C1.65 0 3.3 0 5 0 C5.33 0.99 5.66 1.98 6 3 C6.66 3.33 7.32 3.66 8 4 C5.03 3.67 2.06 3.34 -1 3 C-0.67 2.01 -0.34 1.02 0 0 Z " fill="#E4662F" transform="translate(197,99)"/>
<path d="M0 0 C0 1.32 0 2.64 0 4 C-1.98 4 -3.96 4 -6 4 C-6 3.01 -6 2.02 -6 1 C-4 0 -4 0 0 0 Z " fill="#E15417" transform="translate(180,314)"/>
<path d="M0 0 C1.32 0.66 2.64 1.32 4 2 C3.34 3.32 2.68 4.64 2 6 C1.34 6 0.68 6 0 6 C-0.33 5.34 -0.66 4.68 -1 4 C-1.99 3.34 -2.98 2.68 -4 2 C-2.68 2 -1.36 2 0 2 C0 1.34 0 0.68 0 0 Z " fill="#CC5D28" transform="translate(285,273)"/>
<path d="M0 0 C0 2 0 2 -1.125 3.5625 C-3.63946978 5.49026016 -5.89545967 5.65505107 -9 6 C-8 3 -8 3 -5.0625 1.3125 C-2 0 -2 0 0 0 Z " fill="#C66E4C" transform="translate(288,270)"/>
<path d="M0 0 C0 1.32 0 2.64 0 4 C-2.95664519 5.4783226 -5.74229737 5.06032783 -9 5 C-2.87096774 0 -2.87096774 0 0 0 Z " fill="#C57148" transform="translate(277,192)"/>
<path d="M0 0 C4.21912747 0.4794463 6.79663178 1.16625119 10 4 C9.67 4.66 9.34 5.32 9 6 C6.03 4.35 3.06 2.7 0 1 C0 0.67 0 0.34 0 0 Z " fill="#D0754D" transform="translate(278,320)"/>
<path d="M0 0 C2.31 0 4.62 0 7 0 C7 0.99 7 1.98 7 3 C7.66 3 8.32 3 9 3 C9 3.66 9 4.32 9 5 C5.54074837 3.7508258 2.85306797 2.32472205 0 0 Z " fill="#FAD8CC" transform="translate(188,310)"/>
<path d="M0 0 C1.2065625 0.0309375 1.2065625 0.0309375 2.4375 0.0625 C2.4375 1.3825 2.4375 2.7025 2.4375 4.0625 C0.7875 4.0625 -0.8625 4.0625 -2.5625 4.0625 C-2.8925 3.0725 -3.2225 2.0825 -3.5625 1.0625 C-2.5625 0.0625 -2.5625 0.0625 0 0 Z " fill="#F36215" transform="translate(215.5625,262.9375)"/>
<path d="M0 0 C1.32 0 2.64 0 4 0 C3.67 1.32 3.34 2.64 3 4 C1.35 4.33 -0.3 4.66 -2 5 C-1.34 3.35 -0.68 1.7 0 0 Z " fill="#CB652F" transform="translate(306,258)"/>
<path d="M0 0 C4.67692308 1.47692308 4.67692308 1.47692308 6.3125 4.125 C6.539375 4.74375 6.76625 5.3625 7 6 C3.62496331 4.8141763 1.35277269 3.72426311 -1 1 C-0.67 0.67 -0.34 0.34 0 0 Z " fill="#FAEBD7" transform="translate(209,153)"/>
<path d="M0 0 C3.7910119 1.44950455 7.3874638 3.15172566 11 5 C8.83032311 5.95465783 7.43671207 6.14401212 5.17578125 5.3984375 C3.4315257 4.64129615 1.71372869 3.82390802 0 3 C0 2.01 0 1.02 0 0 Z " fill="#FEE4CE" transform="translate(179,97)"/>
<path d="M0 0 C6.875 2.75 6.875 2.75 8 5 C5.69 5 3.38 5 1 5 C0.67 3.35 0.34 1.7 0 0 Z " fill="#D4591B" transform="translate(288,371)"/>
<path d="M0 0 C3.3 1.98 6.6 3.96 10 6 C6.79937313 7.60031344 4.27728194 6.03173691 1 5 C0.67 3.35 0.34 1.7 0 0 Z " fill="#C06637" transform="translate(233,336)"/>
<path d="M0 0 C2.97 0.495 2.97 0.495 6 1 C5.01 2.485 5.01 2.485 4 4 C2.35 3.67 0.7 3.34 -1 3 C-0.67 2.01 -0.34 1.02 0 0 Z " fill="#ECFDFA" transform="translate(200,312)"/>
<path d="M0 0 C0 1.65 0 3.3 0 5 C-3 5 -3 5 -4.6875 3.5 C-5.120625 3.005 -5.55375 2.51 -6 2 C-2.25 0 -2.25 0 0 0 Z " fill="#C56838" transform="translate(256,289)"/>
<path d="M0 0 C-0.33 1.32 -0.66 2.64 -1 4 C-3.64 4.33 -6.28 4.66 -9 5 C-2.40909091 0 -2.40909091 0 0 0 Z " fill="#C17249" transform="translate(213,229)"/>
<path d="M0 0 C0.33 0.66 0.66 1.32 1 2 C1.66 2.33 2.32 2.66 3 3 C0.6875 5.0625 0.6875 5.0625 -2 7 C-2.99 6.67 -3.98 6.34 -5 6 C-4.01 5.34 -3.02 4.68 -2 4 C-2 3.01 -2 2.02 -2 1 C-1.34 0.67 -0.68 0.34 0 0 Z M-6 7 C-5.67 7.66 -5.34 8.32 -5 9 C-5.66 8.67 -6.32 8.34 -7 8 C-6.67 7.67 -6.34 7.34 -6 7 Z " fill="#E05C1F" transform="translate(255,215)"/>
<path d="M0 0 C3.77545388 1.09068668 6.47043472 1.9083091 9 5 C6.36 4.67 3.72 4.34 1 4 C0.67 2.68 0.34 1.36 0 0 Z " fill="#FEE6CE" transform="translate(296,165)"/>
<path d="M0 0 C3.73487777 0.4979837 5.81237635 0.87491756 9 3 C9 3.66 9 4.32 9 5 C5.22454612 3.90931332 2.52956528 3.0916909 0 0 Z " fill="#CB8558" transform="translate(253,139)"/>
<path d="M0 0 C3.465 1.485 3.465 1.485 7 3 C7 3.33 7 3.66 7 4 C1.25 5.125 1.25 5.125 -1 4 C-0.67 2.68 -0.34 1.36 0 0 Z " fill="#C97749" transform="translate(219,328)"/>
<path d="M0 0 C0 0.66 0 1.32 0 2 C-2.95481492 4.74375671 -3.77471908 5 -8 5 C-8 4.34 -8 3.68 -8 3 C-2.25 0 -2.25 0 0 0 Z " fill="#FDE1D0" transform="translate(192,284)"/>
<path d="M0 0 C-2.31 1.32 -4.62 2.64 -7 4 C-7.33 3.34 -7.66 2.68 -8 2 C-6.14210462 -1.71579076 -3.44525918 -1.06921837 0 0 Z " fill="#DA6D44" transform="translate(208,274)"/>
<path d="M0 0 C2.31 0.33 4.62 0.66 7 1 C4.08235 2.9451 2.37462715 3.45276317 -1 4 C-0.67 2.68 -0.34 1.36 0 0 Z " fill="#EC6416" transform="translate(197,272)"/>
<path d="M0 0 C1.65 0 3.3 0 5 0 C2.47211993 2.79872437 0.79588866 4.45773019 -3 5 C-3 4.34 -3 3.68 -3 3 C-2.34 3 -1.68 3 -1 3 C-0.67 2.01 -0.34 1.02 0 0 Z " fill="#F9EDD8" transform="translate(209,227)"/>
<path d="M0 0 C0 0.66 0 1.32 0 2 C-0.66 2 -1.32 2 -2 2 C-2 2.66 -2 3.32 -2 4 C-3.65 4.33 -5.3 4.66 -7 5 C-7 4.01 -7 3.02 -7 2 C-2.25 0 -2.25 0 0 0 Z " fill="#E25625" transform="translate(279,195)"/>
<path d="M0 0 C-0.33 1.32 -0.66 2.64 -1 4 C-3.31 4.33 -5.62 4.66 -8 5 C-3.16129032 0 -3.16129032 0 0 0 Z " fill="#FBDCC4" transform="translate(213,187)"/>
<path d="M0 0 C2.64 0 5.28 0 8 0 C5.31158141 2.25245881 3.35358125 3.88213958 0 5 C0 3.35 0 1.7 0 0 Z " fill="#D3734D" transform="translate(219,178)"/>
<path d="M0 0 C3.95820859 0.56545837 6.6659053 1.80902348 10 4 C9.67 4.66 9.34 5.32 9 6 C6.03 4.35 3.06 2.7 0 1 C0 0.67 0 0.34 0 0 Z " fill="#D0794F" transform="translate(262,144)"/>
<path d="M0 0 C1.98 0.99 3.96 1.98 6 3 C6 3.99 6 4.98 6 6 C4.68 6 3.36 6 2 6 C2 4.68 2 3.36 2 2 C1.34 2 0.68 2 0 2 C0 1.34 0 0.68 0 0 Z " fill="#BD5E2B" transform="translate(304,378)"/>
<path d="M0 0 C2.31 0 4.62 0 7 0 C4.37801226 2.15377564 2.35595828 3.40072174 -1 4 C-0.67 2.68 -0.34 1.36 0 0 Z " fill="#F8E3D1" transform="translate(273,274)"/>
<path d="M0 0 C0.99 0.33 1.98 0.66 3 1 C0.64722731 3.72426311 -1.62496331 4.8141763 -5 6 C-5 5.01 -5 4.02 -5 3 C-3.35 2.34 -1.7 1.68 0 1 C0 0.67 0 0.34 0 0 Z " fill="#FCE3CB" transform="translate(298,260)"/>
<path d="M0 0 C0.99 0 1.98 0 3 0 C3 0.66 3 1.32 3 2 C-1.95 3.485 -1.95 3.485 -7 5 C-6.67 4.01 -6.34 3.02 -6 2 C-4.02 2 -2.04 2 0 2 C0 1.34 0 0.68 0 0 Z " fill="#CF6030" transform="translate(176,251)"/>
<path d="M0 0 C4.455 1.98 4.455 1.98 9 4 C5.23375329 5.25541557 3.62811066 4.37061958 0 3 C0 2.01 0 1.02 0 0 Z " fill="#FCE2CF" transform="translate(207,113)"/>
<path d="M0 0 C2.475 0.495 2.475 0.495 5 1 C5 1.66 5 2.32 5 3 C6.65 3 8.3 3 10 3 C8.02 3.99 8.02 3.99 6 5 C3.98079663 3.69593116 1.98075027 2.36176581 0 1 C0 0.67 0 0.34 0 0 Z " fill="#DC7B4D" transform="translate(178,95)"/>
<path d="M0 0 C0.33 1.32 0.66 2.64 1 4 C0.01 4.33 -0.98 4.66 -2 5 C-2.99 4.01 -3.98 3.02 -5 2 C-2 0 -2 0 0 0 Z " fill="#F9F7F2" transform="translate(301,369)"/>
<path d="M0 0 C1.65 0 3.3 0 5 0 C2.31158141 2.25245881 0.35358125 3.88213958 -3 5 C-2.67 4.01 -2.34 3.02 -2 2 C-1.34 2 -0.68 2 0 2 C0 1.34 0 0.68 0 0 Z " fill="#FDE7D3" transform="translate(267,278)"/>
<path d="M0 0 C1.98 0 3.96 0 6 0 C5.01 1.485 5.01 1.485 4 3 C1.375 3.1875 1.375 3.1875 -1 3 C-0.67 2.01 -0.34 1.02 0 0 Z " fill="#DC6E39" transform="translate(228,258)"/>
<path d="M0 0 C0.66 0.33 1.32 0.66 2 1 C1.67 1.99 1.34 2.98 1 4 C-1.0625 4.6875 -1.0625 4.6875 -3 5 C-3 3.68 -3 2.36 -3 1 C-2.01 0.67 -1.02 0.34 0 0 Z " fill="#F66315" transform="translate(307,210)"/>
<path d="M0 0 C0.99 0.66 1.98 1.32 3 2 C-0.96 3.98 -0.96 3.98 -5 6 C-5.33 5.01 -5.66 4.02 -6 3 C-4.02 2.67 -2.04 2.34 0 2 C0 1.34 0 0.68 0 0 Z " fill="#FCE3D7" transform="translate(288,182)"/>
<path d="M0 0 C0.66 0.66 1.32 1.32 2 2 C-1.96 3.98 -1.96 3.98 -6 6 C-4.75453595 2.26360784 -3.36595047 1.81243487 0 0 Z " fill="#B86E4C" transform="translate(235,171)"/>
<path d="M0 0 C2.475 0.495 2.475 0.495 5 1 C5 1.66 5 2.32 5 3 C6.32 3.33 7.64 3.66 9 4 C8.01 4.33 7.02 4.66 6 5 C2.8125 3.125 2.8125 3.125 0 1 C0 0.67 0 0.34 0 0 Z " fill="#F7DCC5" transform="translate(216,159)"/>
<path d="M0 0 C4.75 0.75 4.75 0.75 7 3 C5.35 3.33 3.7 3.66 2 4 C1.34 2.68 0.68 1.36 0 0 Z " fill="#F6601B" transform="translate(245,130)"/>
<path d="M0 0 C0.66 0.33 1.32 0.66 2 1 C2 1.99 2 2.98 2 4 C0.02 4 -1.96 4 -4 4 C-4 3.34 -4 2.68 -4 2 C-2.125 0.9375 -2.125 0.9375 0 0 Z " fill="#F1FEF5" transform="translate(177,130)"/>
<path d="M0 0 C3.37503669 1.1858237 5.64722731 2.27573689 8 5 C5.125 4.75 5.125 4.75 2 4 C0.625 1.9375 0.625 1.9375 0 0 Z " fill="#FEE9CF" transform="translate(224,123)"/>
</svg>
