{
  "accessors": [
    {
      "bufferView": 2,
      "componentType": 5126,
      "count": 38872,
      "max": [
        363.4818420410156,
        86.67304229736328,
        240.70176696777344
      ],
      "min": [
        -266.4833984375,
        -86.67304229736328,
        -233.2073211669922
      ],
      "type": "VEC3"
    },
    {
      "bufferView": 2,
      "byteOffset": 466464,
      "componentType": 5126,
      "count": 38872,
      "max": [
        0.9999688863754272,
        1.0,
        0.9999974370002747
      ],
      "min": [
        -1.0,
        -1.0,
        -0.9999755024909973
      ],
      "type": "VEC3"
    },
    {
      "bufferView": 1,
      "componentType": 5126,
      "count": 38872,
      "max": [
        0.9986037611961365,
        0.9701260924339294
      ],
      "min": [
        0.04432423785328865,
        0.027924172580242157
      ],
      "type": "VEC2"
    },
    {
      "bufferView": 0,
      "componentType": 5125,
      "count": 198666,
      "type": "SCALAR"
    },
    {
      "bufferView": 2,
      "byteOffset": 932928,
      "componentType": 5126,
      "count": 300,
      "max": [
        22.92920684814453,
        213.13217163085938,
        179.2693634033203
      ],
      "min": [
        -22.92920684814453,
        196.31201171875,
        162.44918823242188
      ],
      "type": "VEC3"
    },
    {
      "bufferView": 2,
      "byteOffset": 936528,
      "componentType": 5126,
      "count": 300,
      "max": [
        1.0,
        1.0,
        1.0
      ],
      "min": [
        -1.0,
        -1.0,
        -1.0
      ],
      "type": "VEC3"
    },
    {
      "bufferView": 1,
      "byteOffset": 310976,
      "componentType": 5126,
      "count": 300,
      "max": [
        0.43248242139816284,
        0.6365839838981628
      ],
      "min": [
        0.3077520430088043,
        0.5118536353111267
      ],
      "type": "VEC2"
    },
    {
      "bufferView": 0,
      "byteOffset": 794664,
      "componentType": 5125,
      "count": 1152,
      "type": "SCALAR"
    }
  ],
  "asset": {
    "extras": {
      "author": "RainerWahnsinn (https://sketchfab.com/RainerWahnsinn)",
      "license": "CC-BY-4.0 (http://creativecommons.org/licenses/by/4.0/)",
      "source": "https://sketchfab.com/3d-models/flying-rat-e03574729e4f4f6a9ac9a65498ad30eb",
      "title": "Flying Rat"
    },
    "generator": "Sketchfab-12.68.0",
    "version": "2.0"
  },
  "bufferViews": [
    {
      "buffer": 0,
      "byteLength": 799272,
      "name": "floatBufferViews",
      "target": 34963
    },
    {
      "buffer": 0,
      "byteLength": 313376,
      "byteOffset": 799272,
      "byteStride": 8,
      "name": "floatBufferViews",
      "target": 34962
    },
    {
      "buffer": 0,
      "byteLength": 940128,
      "byteOffset": 1112648,
      "byteStride": 12,
      "name": "floatBufferViews",
      "target": 34962
    }
  ],
  "buffers": [
    {
      "byteLength": 2052776,
      "uri": "scene.bin"
    }
  ],
  "images": [
    {
      "uri": "textures/Material_baseColor.jpeg"
    }
  ],
  "materials": [
    {
      "doubleSided": true,
      "name": "Material",
      "pbrMetallicRoughness": {
        "baseColorTexture": {
          "index": 0
        },
        "metallicFactor": 0.0,
        "roughnessFactor": 0.8211145618000169
      }
    }
  ],
  "meshes": [
    {
      "name": "Plane_Material_0",
      "primitives": [
        {
          "attributes": {
            "NORMAL": 1,
            "POSITION": 0,
            "TEXCOORD_0": 2
          },
          "indices": 3,
          "material": 0,
          "mode": 4
        }
      ]
    },
    {
      "name": "Cube_Material_0",
      "primitives": [
        {
          "attributes": {
            "NORMAL": 5,
            "POSITION": 4,
            "TEXCOORD_0": 6
          },
          "indices": 7,
          "material": 0,
          "mode": 4
        }
      ]
    }
  ],
  "nodes": [
    {
      "children": [
        1
      ],
      "matrix": [
        1.0,
        0.0,
        0.0,
        0.0,
        0.0,
        2.220446049250313e-16,
        -1.0,
        0.0,
        0.0,
        1.0,
        2.220446049250313e-16,
        0.0,
        0.0,
        0.0,
        0.0,
        1.0
      ],
      "name": "Sketchfab_model"
    },
    {
      "children": [
        2
      ],
      "matrix": [
        1.0,
        0.0,
        0.0,
        0.0,
        0.0,
        0.0,
        1.0,
        0.0,
        0.0,
        -1.0,
        0.0,
        0.0,
        0.0,
        0.0,
        0.0,
        1.0
      ],
      "name": "rat.fbx"
    },
    {
      "children": [
        3,
        5
      ],
      "name": "RootNode"
    },
    {
      "children": [
        4
      ],
      "matrix": [
        7.549789959870878e-08,
        1.1102230246251565e-16,
        -0.9999999999999971,
        0.0,
        0.9999999999999962,
        -4.371139006309477e-08,
        7.549789954319763e-08,
        0.0,
        -4.371139006309477e-08,
        -0.9999999999999991,
        -3.552713678800501e-15,
        0.0,
        0.0,
        0.0,
        0.0,
        1.0
      ],
      "name": "Plane"
    },
    {
      "mesh": 0,
      "name": "Plane_Material_0"
    },
    {
      "children": [
        6
      ],
      "name": "Cube"
    },
    {
      "mesh": 1,
      "name": "Cube_Material_0"
    }
  ],
  "samplers": [
    {
      "magFilter": 9729,
      "minFilter": 9987,
      "wrapS": 10497,
      "wrapT": 10497
    }
  ],
  "scene": 0,
  "scenes": [
    {
      "name": "Sketchfab_Scene",
      "nodes": [
        0
      ]
    }
  ],
  "textures": [
    {
      "sampler": 0,
      "source": 0
    }
  ]
}
